<svg xmlns="http://www.w3.org/2000/svg" viewBox="0 0 472 472">
<polygon points="250.0,156.5 249.0,156.5 248.0,156.5 247.0,156.5 246.0,156.5 245.0,156.5 244.0,156.5 243.0,156.5 242.0,156.5 241.0,156.5 240.0,156.5 239.0,156.5 238.0,156.5 237.0,156.5 236.0,156.5 235.0,156.5 234.0,156.5 233.0,156.5 232.0,156.5 231.0,156.5 230.5,156.0 230.0,155.5 229.5,155.0 229.5,154.0 229.5,153.0 229.0,152.5 228.5,152.0 228.5,151.0 228.5,150.0 228.5,149.0 228.0,148.5 227.5,148.0 227.5,147.0 227.5,146.0 227.5,145.0 227.5,144.0 227.0,143.5 226.5,143.0 226.5,142.0 226.5,141.0 226.5,140.0 226.5,139.0 226.5,138.0 226.0,137.5 225.5,137.0 225.5,136.0 225.5,135.0 225.5,134.0 225.0,133.5 224.5,133.0 224.5,132.0 224.5,131.0 224.5,130.0 224.0,129.5 223.5,129.0 223.5,128.0 223.5,127.0 223.5,126.0 223.0,125.5 222.5,125.0 222.5,124.0 222.5,123.0 222.5,122.0 222.0,121.5 221.5,121.0 221.5,120.0 221.5,119.0 221.5,118.0 221.5,117.0 221.0,116.5 220.5,116.0 220.5,115.0 220.5,114.0 220.5,113.0 220.5,112.0 221.0,111.5 222.0,111.5 223.0,111.5 223.5,112.0 223.5,113.0 224.0,113.5 224.5,114.0 225.0,114.5 225.5,115.0 226.0,115.5 226.5,116.0 227.0,116.5 227.5,117.0 228.0,117.5 228.5,118.0 228.5,119.0 229.0,119.5 229.5,120.0 230.0,120.5 230.5,121.0 230.5,122.0 231.0,122.5 231.5,123.0 232.0,123.5 232.5,124.0 233.0,124.5 233.5,125.0 234.0,125.5 234.5,126.0 235.0,126.5 235.5,127.0 236.0,127.5 236.5,128.0 236.5,129.0 237.0,129.5 237.5,130.0 237.5,131.0 238.0,131.5 238.5,132.0 239.0,132.5 239.5,133.0 240.0,133.5 240.5,134.0 241.0,134.5 241.5,135.0 242.0,135.5 242.5,136.0 242.5,137.0 243.0,137.5 243.5,138.0 244.0,138.5 244.5,139.0 244.5,140.0 245.0,140.5 245.5,141.0 246.0,141.5 246.5,142.0 247.0,142.5 247.5,143.0 247.5,144.0 248.0,144.5 248.5,145.0 248.5,146.0 248.5,147.0 248.5,148.0 248.5,149.0 249.0,149.5 249.5,150.0 249.5,151.0 249.5,152.0 249.5,153.0 249.5,154.0 250.0,154.5 250.5,155.0 250.5,156.0 250.0,156.5" fill="rgb(56,111,179)"/>
<polygon points="214.0,162.5 213.0,162.5 212.5,162.0 212.0,161.5 211.0,161.5 210.0,161.5 209.5,161.0 209.0,160.5 208.0,160.5 207.0,160.5 206.5,160.0 206.0,159.5 205.5,159.0 205.5,158.0 205.5,157.0 205.5,156.0 205.5,155.0 205.5,154.0 205.5,153.0 205.5,152.0 205.5,151.0 205.5,150.0 205.5,149.0 206.0,148.5 206.5,148.0 206.5,147.0 206.5,146.0 206.5,145.0 206.5,144.0 206.5,143.0 206.5,142.0 206.5,141.0 206.5,140.0 206.0,139.5 205.5,139.0 205.0,138.5 204.5,138.0 204.0,137.5 203.5,137.0 203.0,136.5 202.5,136.0 202.0,135.5 201.5,135.0 201.0,134.5 200.5,134.0 200.0,133.5 199.5,133.0 199.5,132.0 199.0,131.5 198.5,131.0 198.0,130.5 197.5,130.0 197.5,129.0 197.0,128.5 196.5,128.0 196.5,127.0 197.0,126.5 197.5,126.0 198.0,125.5 199.0,125.5 199.5,125.0 200.0,124.5 200.5,124.0 201.0,123.5 202.0,123.5 202.5,123.0 203.0,122.5 203.5,122.0 204.0,121.5 205.0,121.5 205.5,121.0 206.0,120.5 206.5,120.0 207.0,119.5 207.5,119.0 208.0,118.5 208.5,118.0 209.0,117.5 209.5,118.0 209.5,119.0 209.5,120.0 210.0,120.5 210.5,121.0 210.5,122.0 210.5,123.0 210.5,124.0 210.5,125.0 210.5,126.0 211.0,126.5 211.5,127.0 211.5,128.0 211.5,129.0 211.5,130.0 212.0,130.5 212.5,131.0 212.5,132.0 212.5,133.0 212.5,134.0 213.0,134.5 213.5,135.0 213.5,136.0 213.5,137.0 213.5,138.0 214.0,138.5 214.5,139.0 214.5,140.0 214.5,141.0 214.5,142.0 215.0,142.5 215.5,143.0 215.5,144.0 215.5,145.0 215.5,146.0 216.0,146.5 216.5,147.0 216.5,148.0 216.5,149.0 216.5,150.0 217.0,150.5 217.5,151.0 217.5,152.0 218.0,152.5 218.5,153.0 218.5,154.0 218.5,155.0 218.5,156.0 218.5,157.0 218.5,158.0 218.5,159.0 219.0,159.5 219.5,160.0 219.0,160.5 218.0,160.5 217.5,161.0 217.0,161.5 216.0,161.5 215.0,161.5 214.5,162.0 214.0,162.5" fill="rgb(56,111,179)"/>
<polygon points="156.0,170.5 155.5,170.0 155.0,169.5 154.0,169.5 153.5,169.0 153.0,168.5 152.0,168.5 151.0,168.5 150.5,168.0 150.0,167.5 149.0,167.5 148.5,167.0 148.0,166.5 147.0,166.5 146.0,166.5 145.5,166.0 145.0,165.5 144.0,165.5 143.5,165.0 143.0,164.5 142.0,164.5 141.0,164.5 140.5,164.0 140.0,163.5 139.0,163.5 138.5,163.0 138.0,162.5 137.0,162.5 136.5,162.0 136.0,161.5 135.0,161.5 134.5,161.0 134.0,160.5 133.5,160.0 133.5,159.0 133.0,158.5 132.5,158.0 132.0,157.5 131.5,157.0 131.0,156.5 130.5,156.0 130.5,155.0 130.0,154.5 129.5,154.0 129.0,153.5 128.5,153.0 128.0,152.5 127.5,152.0 127.0,151.5 126.5,151.0 126.0,150.5 125.5,150.0 125.0,149.5 124.5,149.0 124.0,148.5 123.5,148.0 123.0,147.5 122.5,147.0 122.0,146.5 121.5,146.0 121.0,145.5 120.5,145.0 120.0,144.5 119.5,144.0 119.5,143.0 119.0,142.5 118.5,142.0 118.0,141.5 117.5,141.0 117.5,140.0 118.0,139.5 118.5,139.0 119.0,138.5 119.5,138.0 119.5,137.0 120.0,136.5 120.5,136.0 121.0,135.5 121.5,135.0 122.0,134.5 122.5,134.0 122.5,133.0 123.0,132.5 123.5,132.0 123.5,131.0 124.0,130.5 124.5,130.0 125.0,129.5 125.5,129.0 126.0,128.5 126.5,128.0 126.5,127.0 127.0,126.5 127.5,126.0 127.5,125.0 128.0,124.5 128.5,125.0 129.0,125.5 130.0,125.5 131.0,125.5 131.5,126.0 132.0,126.5 133.0,126.5 133.5,127.0 134.0,127.5 135.0,127.5 135.5,128.0 136.0,128.5 136.5,129.0 137.0,129.5 138.0,129.5 138.5,130.0 139.0,130.5 139.5,131.0 139.5,132.0 139.5,133.0 139.5,134.0 140.0,134.5 140.5,135.0 140.5,136.0 140.5,137.0 140.5,138.0 141.0,138.5 141.5,139.0 141.5,140.0 141.5,141.0 141.5,142.0 141.5,143.0 142.0,143.5 142.5,144.0 143.0,144.5 143.5,145.0 144.0,145.5 144.5,146.0 145.0,146.5 145.5,147.0 146.0,147.5 146.5,148.0 147.0,148.5 147.5,149.0 148.0,149.5 148.5,150.0 149.0,150.5 149.5,151.0 150.0,151.5 150.5,152.0 151.0,152.5 151.5,153.0 152.0,153.5 152.5,154.0 153.0,154.5 153.5,155.0 154.0,155.5 154.5,156.0 155.0,156.5 155.5,157.0 156.0,157.5 156.5,158.0 157.0,158.5 157.5,159.0 158.0,159.5 158.5,160.0 159.0,160.5 160.0,160.5 160.5,161.0 161.0,161.5 161.5,162.0 161.5,163.0 162.0,163.5 162.5,164.0 163.0,164.5 163.5,165.0 164.0,165.5 164.5,166.0 165.0,166.5 166.0,166.5 166.5,167.0 166.5,168.0 166.0,168.5 165.0,168.5 164.0,168.5 163.0,168.5 162.0,168.5 161.5,169.0 161.0,169.5 160.0,169.5 159.0,169.5 158.0,169.5 157.0,169.5 156.5,170.0 156.0,170.5" fill="rgb(56,111,179)"/>
<polygon points="182.0,161.5 181.0,161.5 180.0,161.5 179.0,161.5 178.0,161.5 177.5,161.0 177.0,160.5 176.5,160.0 176.0,159.5 175.5,159.0 175.0,158.5 174.5,158.0 174.0,157.5 173.5,157.0 173.0,156.5 172.5,156.0 172.0,155.5 171.5,155.0 171.0,154.5 170.5,154.0 170.0,153.5 169.5,153.0 169.0,152.5 168.5,152.0 168.0,151.5 167.5,151.0 167.0,150.5 166.5,150.0 166.0,149.5 165.5,149.0 165.0,148.5 164.5,148.0 164.0,147.5 163.5,147.0 163.0,146.5 162.5,146.0 162.0,145.5 161.5,145.0 161.0,144.5 160.5,144.0 160.0,143.5 159.5,143.0 159.0,142.5 158.5,142.0 158.0,141.5 157.5,141.0 157.0,140.5 156.5,140.0 156.0,139.5 155.5,139.0 155.0,138.5 154.5,138.0 154.0,137.5 153.0,137.5 152.5,137.0 152.5,136.0 152.5,135.0 152.5,134.0 152.5,133.0 152.5,132.0 152.5,131.0 153.0,130.5 154.0,130.5 155.0,130.5 155.5,131.0 156.0,131.5 157.0,131.5 158.0,131.5 159.0,131.5 160.0,131.5 161.0,131.5 162.0,131.5 163.0,131.5 164.0,131.5 165.0,131.5 166.0,131.5 167.0,131.5 168.0,131.5 168.5,132.0 169.0,132.5 170.0,132.5 171.0,132.5 172.0,132.5 173.0,132.5 174.0,132.5 175.0,132.5 176.0,132.5 177.0,132.5 178.0,132.5 179.0,132.5 180.0,132.5 181.0,132.5 181.5,133.0 182.0,133.5 182.5,134.0 183.0,134.5 183.5,135.0 184.0,135.5 184.5,136.0 185.0,136.5 185.5,137.0 186.0,137.5 186.5,138.0 187.0,138.5 187.5,139.0 187.5,140.0 188.0,140.5 188.5,141.0 189.0,141.5 189.5,142.0 190.0,142.5 190.5,143.0 191.0,143.5 191.5,144.0 192.0,144.5 192.5,145.0 192.5,146.0 193.0,146.5 193.5,147.0 193.5,148.0 193.5,149.0 193.5,150.0 193.5,151.0 193.5,152.0 193.0,152.5 192.5,153.0 192.5,154.0 192.5,155.0 192.5,156.0 192.5,157.0 192.5,158.0 192.0,158.5 191.0,158.5 190.0,158.5 189.5,159.0 189.0,159.5 188.0,159.5 187.0,159.5 186.5,160.0 186.0,160.5 185.0,160.5 184.0,160.5 183.0,160.5 182.5,161.0 182.0,161.5" fill="rgb(56,111,179)"/>
<polygon points="120.0,178.5 119.5,178.0 119.5,177.0 119.5,176.0 119.0,175.5 118.5,175.0 118.5,174.0 118.0,173.5 117.5,173.0 117.5,172.0 117.0,171.5 116.5,171.0 116.5,170.0 116.0,169.5 115.5,169.0 115.5,168.0 115.0,167.5 114.5,167.0 114.5,166.0 114.5,165.0 114.0,164.5 113.5,164.0 113.5,163.0 113.0,162.5 112.5,162.0 112.5,161.0 112.0,160.5 111.0,160.5 110.0,160.5 109.0,160.5 108.0,160.5 107.0,160.5 106.0,160.5 105.0,160.5 104.0,160.5 103.5,161.0 103.0,161.5 102.0,161.5 101.5,161.0 102.0,160.5 102.5,160.0 102.5,159.0 103.0,158.5 103.5,158.0 104.0,157.5 104.5,157.0 104.5,156.0 105.0,155.5 105.5,155.0 105.5,154.0 105.5,153.0 106.0,152.5 107.0,152.5 107.5,152.0 107.5,151.0 108.0,150.5 109.0,150.5 109.5,150.0 110.0,149.5 111.0,149.5 112.0,149.5 112.5,150.0 112.5,151.0 113.0,151.5 113.5,152.0 113.5,153.0 114.0,153.5 114.5,154.0 114.5,155.0 115.0,155.5 115.5,156.0 115.5,157.0 116.0,157.5 116.5,158.0 117.0,158.5 117.5,159.0 117.5,160.0 118.0,160.5 118.5,161.0 119.0,161.5 119.5,162.0 119.5,163.0 120.0,163.5 120.5,164.0 121.0,164.5 121.5,165.0 121.5,166.0 122.0,166.5 122.5,167.0 122.5,168.0 123.0,168.5 123.5,169.0 123.5,170.0 124.0,170.5 124.5,171.0 125.0,171.5 125.5,172.0 125.0,172.5 124.5,173.0 124.0,173.5 123.5,174.0 123.0,174.5 122.5,175.0 122.5,176.0 122.0,176.5 121.5,177.0 121.0,177.5 120.5,178.0 120.0,178.5" fill="rgb(56,111,179)"/>
<polygon points="260.0,249.5 259.5,249.0 259.5,248.0 259.5,247.0 259.0,246.5 258.5,246.0 258.5,245.0 258.0,244.5 257.5,244.0 257.5,243.0 257.5,242.0 257.0,241.5 256.5,241.0 256.5,240.0 256.5,239.0 256.0,238.5 255.5,238.0 255.5,237.0 255.0,236.5 254.5,236.0 254.5,235.0 254.0,234.5 253.5,234.0 253.5,233.0 253.5,232.0 253.0,231.5 252.5,231.0 252.5,230.0 252.0,229.5 251.5,229.0 251.5,228.0 251.0,227.5 250.5,227.0 250.5,226.0 250.5,225.0 250.5,224.0 251.0,223.5 251.5,223.0 252.0,222.5 252.5,222.0 253.0,221.5 254.0,221.5 254.5,221.0 255.0,220.5 255.5,220.0 256.0,219.5 256.5,219.0 257.0,218.5 257.5,218.0 258.0,217.5 258.5,217.0 259.0,216.5 259.5,216.0 260.0,215.5 260.5,215.0 261.0,214.5 261.5,214.0 262.0,213.5 262.5,213.0 263.0,212.5 263.5,212.0 264.0,211.5 264.5,211.0 265.0,210.5 265.5,210.0 266.0,209.5 267.0,209.5 267.5,209.0 268.0,208.5 268.5,208.0 269.0,207.5 269.5,207.0 270.0,206.5 270.5,206.0 271.0,205.5 271.5,205.0 272.0,204.5 273.0,204.5 273.5,204.0 273.5,203.0 274.0,202.5 275.0,202.5 275.5,202.0 275.5,201.0 276.0,200.5 277.0,200.5 277.5,201.0 277.5,202.0 277.5,203.0 278.0,203.5 278.5,204.0 278.5,205.0 279.0,205.5 279.5,206.0 279.5,207.0 280.0,207.5 280.5,208.0 281.0,208.5 281.5,209.0 281.5,210.0 282.0,210.5 282.5,211.0 283.0,211.5 283.5,212.0 283.5,213.0 284.0,213.5 284.5,214.0 284.5,215.0 285.0,215.5 285.5,216.0 285.5,217.0 286.0,217.5 286.5,218.0 286.5,219.0 287.0,219.5 287.5,220.0 287.5,221.0 288.0,221.5 288.5,222.0 289.0,222.5 289.5,223.0 290.0,223.5 290.5,224.0 290.5,225.0 290.5,226.0 291.0,226.5 291.5,227.0 292.0,227.5 292.5,228.0 292.5,229.0 293.0,229.5 293.5,230.0 293.0,230.5 292.5,231.0 292.0,231.5 291.5,232.0 291.0,232.5 290.0,232.5 289.5,233.0 289.0,233.5 288.5,234.0 288.0,234.5 287.0,234.5 286.5,235.0 286.0,235.5 285.0,235.5 284.0,235.5 283.5,236.0 283.0,236.5 282.0,236.5 281.5,237.0 281.0,237.5 280.0,237.5 279.5,238.0 279.0,238.5 278.5,239.0 278.0,239.5 277.0,239.5 276.5,240.0 276.0,240.5 275.5,241.0 275.0,241.5 274.0,241.5 273.5,242.0 273.0,242.5 272.5,243.0 272.0,243.5 271.0,243.5 270.5,244.0 270.0,244.5 269.0,244.5 268.5,245.0 268.0,245.5 267.0,245.5 266.5,246.0 266.0,246.5 265.5,247.0 265.0,247.5 264.0,247.5 263.0,247.5 262.5,248.0 262.0,248.5 261.0,248.5 260.5,249.0 260.0,249.5" fill="rgb(56,111,179)"/>
<polygon points="69.0,261.5 68.5,261.0 68.0,260.5 67.5,260.0 67.0,259.5 66.5,259.0 66.5,258.0 66.0,257.5 65.5,257.0 65.0,256.5 64.5,256.0 64.0,255.5 63.5,255.0 63.0,254.5 62.5,254.0 62.0,253.5 61.5,253.0 61.0,252.5 60.5,252.0 60.0,251.5 59.5,251.0 59.0,250.5 58.5,250.0 58.0,249.5 57.5,249.0 57.5,248.0 57.0,247.5 56.5,247.0 56.5,246.0 57.0,245.5 57.5,245.0 57.5,244.0 57.5,243.0 57.5,242.0 58.0,241.5 58.5,241.0 58.5,240.0 58.5,239.0 59.0,238.5 59.5,238.0 59.5,237.0 59.5,236.0 60.0,235.5 60.5,235.0 60.5,234.0 60.5,233.0 61.0,232.5 61.5,232.0 61.5,231.0 61.5,230.0 62.0,229.5 62.5,229.0 63.0,228.5 63.5,228.0 63.5,227.0 63.5,226.0 64.0,225.5 64.5,225.0 65.0,224.5 65.5,224.0 65.5,223.0 65.5,222.0 66.0,221.5 66.5,221.0 66.5,220.0 67.0,219.5 67.5,219.0 67.5,218.0 67.5,217.0 68.0,216.5 68.5,216.0 68.5,215.0 69.0,214.5 69.5,214.0 69.5,213.0 70.0,212.5 70.5,212.0 70.5,211.0 71.0,210.5 71.5,210.0 72.0,209.5 72.5,209.0 72.5,208.0 73.0,207.5 73.5,207.0 73.5,206.0 74.0,205.5 74.5,205.0 74.5,204.0 75.0,203.5 76.0,203.5 76.5,204.0 77.0,204.5 77.5,205.0 78.0,205.5 78.5,206.0 79.0,206.5 80.0,206.5 80.5,207.0 81.0,207.5 82.0,207.5 82.5,208.0 83.0,208.5 84.0,208.5 84.5,209.0 85.0,209.5 86.0,209.5 86.5,210.0 87.0,210.5 87.5,211.0 88.0,211.5 88.5,212.0 89.0,212.5 90.0,212.5 90.5,213.0 91.0,213.5 91.5,214.0 91.5,215.0 91.5,216.0 91.0,216.5 90.5,217.0 90.5,218.0 90.0,218.5 89.5,219.0 89.5,220.0 89.0,220.5 88.5,221.0 88.5,222.0 88.5,223.0 88.0,223.5 87.5,224.0 87.5,225.0 87.0,225.5 86.5,226.0 86.5,227.0 86.0,227.5 85.5,228.0 85.5,229.0 85.0,229.5 84.5,230.0 84.5,231.0 84.0,231.5 83.5,232.0 83.5,233.0 83.0,233.5 82.5,234.0 82.5,235.0 82.0,235.5 81.5,236.0 81.0,236.5 80.5,237.0 80.5,238.0 80.0,238.5 79.5,239.0 79.5,240.0 79.5,241.0 79.0,241.5 78.5,242.0 78.5,243.0 78.0,243.5 77.5,244.0 77.5,245.0 77.0,245.5 76.5,246.0 76.5,247.0 76.5,248.0 76.0,248.5 75.5,249.0 75.0,249.5 74.5,250.0 74.5,251.0 74.0,251.5 73.5,252.0 73.5,253.0 73.0,253.5 72.5,254.0 72.5,255.0 72.0,255.5 71.5,256.0 71.5,257.0 71.0,257.5 70.5,258.0 70.5,259.0 70.0,259.5 69.5,260.0 69.5,261.0 69.0,261.5" fill="rgb(56,111,179)"/>
<polygon points="219.0,278.5 218.0,278.5 217.0,278.5 216.5,278.0 216.0,277.5 215.0,277.5 214.5,277.0 214.0,276.5 213.5,276.0 213.0,275.5 212.5,275.0 212.0,274.5 211.0,274.5 210.5,274.0 210.0,273.5 209.5,273.0 209.0,272.5 208.0,272.5 207.5,272.0 207.0,271.5 206.5,271.0 206.0,270.5 205.0,270.5 204.5,270.0 204.0,269.5 203.0,269.5 202.0,269.5 201.5,269.0 201.0,268.5 200.5,268.0 200.5,267.0 200.0,266.5 199.0,266.5 198.5,266.0 198.0,265.5 197.5,265.0 197.0,264.5 196.0,264.5 195.5,264.0 195.0,263.5 194.0,263.5 193.5,263.0 193.5,262.0 193.0,261.5 192.5,261.0 193.0,260.5 193.5,260.0 193.5,259.0 193.5,258.0 194.0,257.5 194.5,257.0 194.5,256.0 195.0,255.5 195.5,255.0 195.5,254.0 195.5,253.0 196.0,252.5 196.5,252.0 196.5,251.0 197.0,250.5 197.5,250.0 197.5,249.0 197.5,248.0 197.5,247.0 198.0,246.5 198.5,246.0 198.5,245.0 198.5,244.0 198.0,243.5 197.5,243.0 197.5,242.0 197.5,241.0 197.0,240.5 196.5,240.0 196.5,239.0 196.0,238.5 195.5,238.0 195.5,237.0 195.0,236.5 194.5,236.0 194.0,235.5 193.5,235.0 194.0,234.5 195.0,234.5 196.0,234.5 197.0,234.5 198.0,234.5 199.0,234.5 200.0,234.5 200.5,235.0 201.0,235.5 202.0,235.5 203.0,235.5 203.5,236.0 204.0,236.5 205.0,236.5 206.0,236.5 206.5,237.0 207.0,237.5 208.0,237.5 209.0,237.5 210.0,237.5 211.0,237.5 211.5,238.0 212.0,238.5 213.0,238.5 214.0,238.5 215.0,238.5 216.0,238.5 216.5,239.0 217.0,239.5 218.0,239.5 219.0,239.5 220.0,239.5 221.0,239.5 221.5,240.0 222.0,240.5 223.0,240.5 224.0,240.5 225.0,240.5 225.5,241.0 226.0,241.5 227.0,241.5 228.0,241.5 229.0,241.5 230.0,241.5 230.5,242.0 231.0,242.5 232.0,242.5 233.0,242.5 234.0,242.5 234.5,243.0 234.5,244.0 234.0,244.5 233.5,245.0 233.5,246.0 233.0,246.5 232.5,247.0 232.5,248.0 232.0,248.5 231.5,249.0 231.5,250.0 231.0,250.5 230.5,251.0 230.5,252.0 230.0,252.5 229.5,253.0 229.5,254.0 229.0,254.5 228.5,255.0 228.5,256.0 228.5,257.0 228.5,258.0 228.0,258.5 227.5,259.0 227.5,260.0 227.5,261.0 227.0,261.5 226.5,262.0 226.0,262.5 225.5,263.0 225.5,264.0 225.0,264.5 224.5,265.0 224.5,266.0 224.0,266.5 223.5,267.0 223.5,268.0 223.0,268.5 222.5,269.0 222.5,270.0 222.5,271.0 222.0,271.5 221.5,272.0 221.5,273.0 221.0,273.5 220.5,274.0 220.5,275.0 220.0,275.5 219.5,276.0 219.5,277.0 219.5,278.0 219.0,278.5" fill="rgb(56,111,179)"/>
<polygon points="81.0,284.5 80.5,284.0 80.5,283.0 80.5,282.0 80.0,281.5 79.5,281.0 79.5,280.0 79.0,279.5 78.5,279.0 78.5,278.0 78.5,277.0 78.0,276.5 77.5,276.0 77.5,275.0 77.5,274.0 78.0,273.5 79.0,273.5 80.0,273.5 80.5,273.0 81.0,272.5 82.0,272.5 82.5,272.0 83.0,271.5 84.0,271.5 85.0,271.5 85.5,271.0 86.0,270.5 87.0,270.5 88.0,270.5 88.5,270.0 89.0,269.5 90.0,269.5 90.5,269.0 91.0,268.5 92.0,268.5 92.5,268.0 93.0,267.5 94.0,267.5 95.0,267.5 95.5,267.0 96.0,266.5 97.0,266.5 98.0,266.5 98.5,266.0 99.0,265.5 100.0,265.5 100.5,265.0 101.0,264.5 102.0,264.5 103.0,264.5 103.5,264.0 104.0,263.5 105.0,263.5 105.5,263.0 106.0,262.5 107.0,262.5 107.5,262.0 108.0,261.5 109.0,261.5 109.5,261.0 110.0,260.5 111.0,260.5 111.5,260.0 112.0,259.5 113.0,259.5 113.5,259.0 113.5,258.0 114.0,257.5 114.5,257.0 115.0,256.5 115.5,256.0 115.5,255.0 116.0,254.5 116.5,254.0 116.5,253.0 117.0,252.5 117.5,252.0 118.0,251.5 118.5,251.0 118.5,250.0 118.5,249.0 119.0,248.5 119.5,248.0 120.0,247.5 121.0,247.5 121.5,247.0 122.0,246.5 123.0,246.5 124.0,246.5 124.5,246.0 125.0,245.5 126.0,245.5 127.0,245.5 127.5,245.0 128.0,244.5 128.5,244.0 129.0,243.5 130.0,243.5 131.0,243.5 131.5,243.0 132.0,242.5 133.0,242.5 134.0,242.5 134.5,242.0 135.0,241.5 136.0,241.5 136.5,241.0 137.0,240.5 138.0,240.5 139.0,240.5 139.5,240.0 140.0,239.5 141.0,239.5 141.5,239.0 142.0,238.5 143.0,238.5 143.5,239.0 144.0,239.5 144.5,240.0 145.0,240.5 146.0,240.5 146.5,241.0 147.0,241.5 147.5,242.0 148.0,242.5 149.0,242.5 149.5,243.0 150.0,243.5 150.5,244.0 151.0,244.5 152.0,244.5 152.5,245.0 153.0,245.5 153.5,246.0 154.0,246.5 154.5,247.0 155.0,247.5 156.0,247.5 156.5,248.0 157.0,248.5 157.5,249.0 158.0,249.5 158.5,250.0 159.0,250.5 159.5,251.0 159.0,251.5 158.0,251.5 157.0,251.5 156.5,252.0 156.0,252.5 155.0,252.5 154.5,253.0 154.0,253.5 153.0,253.5 152.5,254.0 152.0,254.5 151.0,254.5 150.0,254.5 149.5,255.0 149.0,255.5 148.0,255.5 147.5,256.0 147.0,256.5 146.0,256.5 145.5,257.0 145.0,257.5 144.0,257.5 143.5,258.0 143.0,258.5 142.0,258.5 141.5,259.0 141.0,259.5 140.0,259.5 139.0,259.5 138.5,260.0 138.0,260.5 137.0,260.5 136.0,260.5 135.5,261.0 135.0,261.5 134.0,261.5 133.5,262.0 133.0,262.5 132.0,262.5 131.0,262.5 130.5,263.0 130.0,263.5 129.0,263.5 128.5,264.0 128.0,264.5 127.0,264.5 126.5,265.0 126.0,265.5 125.0,265.5 124.5,266.0 124.0,266.5 123.0,266.5 122.0,266.5 121.5,267.0 121.5,268.0 121.0,268.5 120.0,268.5 119.0,268.5 118.0,268.5 117.5,269.0 117.0,269.5 116.0,269.5 115.5,270.0 115.0,270.5 114.0,270.5 113.5,271.0 113.0,271.5 112.0,271.5 111.0,271.5 110.0,271.5 109.5,272.0 109.0,272.5 108.0,272.5 107.5,273.0 107.0,273.5 106.0,273.5 105.5,274.0 105.0,274.5 104.0,274.5 103.0,274.5 102.5,275.0 102.0,275.5 101.0,275.5 100.5,276.0 100.0,276.5 99.0,276.5 98.0,276.5 97.5,277.0 97.0,277.5 96.0,277.5 95.5,278.0 95.0,278.5 94.0,278.5 93.0,278.5 92.5,279.0 92.0,279.5 91.0,279.5 90.5,280.0 90.0,280.5 89.0,280.5 88.0,280.5 87.5,281.0 87.0,281.5 86.0,281.5 85.5,282.0 85.0,282.5 84.0,282.5 83.5,283.0 83.0,283.5 82.0,283.5 81.5,284.0 81.0,284.5" fill="rgb(56,111,179)"/>
<polygon points="83.0,260.5 82.5,260.0 82.5,259.0 83.0,258.5 83.5,258.0 83.5,257.0 84.0,256.5 84.5,256.0 84.5,255.0 85.0,254.5 85.5,254.0 85.5,253.0 85.5,252.0 86.0,251.5 86.5,251.0 86.5,250.0 86.5,249.0 87.0,248.5 87.5,248.0 88.0,247.5 89.0,247.5 90.0,247.5 91.0,247.5 92.0,247.5 93.0,247.5 94.0,247.5 94.5,247.0 95.0,246.5 96.0,246.5 96.5,246.0 97.0,245.5 97.5,245.0 98.0,244.5 98.5,244.0 99.0,243.5 99.5,243.0 100.0,242.5 100.5,242.0 100.5,241.0 101.0,240.5 101.5,241.0 102.0,241.5 103.0,241.5 103.5,242.0 104.0,242.5 105.0,242.5 105.5,243.0 106.0,243.5 106.5,244.0 107.0,244.5 108.0,244.5 108.5,245.0 108.5,246.0 108.0,246.5 107.5,247.0 107.0,247.5 106.5,248.0 106.5,249.0 106.0,249.5 105.5,250.0 105.5,251.0 105.0,251.5 104.0,251.5 103.0,251.5 102.5,252.0 102.0,252.5 101.0,252.5 100.5,253.0 100.0,253.5 99.0,253.5 98.0,253.5 97.5,254.0 97.0,254.5 96.0,254.5 95.5,255.0 95.0,255.5 94.0,255.5 93.5,256.0 93.0,256.5 92.0,256.5 91.0,256.5 90.5,257.0 90.0,257.5 89.0,257.5 88.5,258.0 88.0,258.5 87.0,258.5 86.5,259.0 86.0,259.5 85.0,259.5 84.0,259.5 83.5,260.0 83.0,260.5" fill="rgb(56,111,179)"/>
<polygon points="262.0,281.5 261.0,281.5 260.5,281.0 260.5,280.0 260.5,279.0 260.5,278.0 260.5,277.0 260.0,276.5 259.5,276.0 259.5,275.0 259.5,274.0 259.5,273.0 259.5,272.0 259.5,271.0 259.5,270.0 259.0,269.5 258.5,269.0 258.5,268.0 258.5,267.0 258.5,266.0 258.5,265.0 258.5,264.0 258.0,263.5 257.5,263.0 258.0,262.5 258.5,262.0 259.0,261.5 259.5,261.0 260.0,260.5 261.0,260.5 261.5,260.0 262.0,259.5 263.0,259.5 264.0,259.5 264.5,259.0 265.0,258.5 266.0,258.5 266.5,258.0 267.0,257.5 268.0,257.5 268.5,257.0 269.0,256.5 270.0,256.5 270.5,256.0 271.0,255.5 271.5,255.0 272.0,254.5 273.0,254.5 273.5,254.0 274.0,253.5 275.0,253.5 275.5,253.0 276.0,252.5 276.5,252.0 277.0,251.5 278.0,251.5 278.5,251.0 279.0,250.5 280.0,250.5 281.0,250.5 281.5,250.0 282.0,249.5 282.5,249.0 283.0,248.5 284.0,248.5 284.5,248.0 285.0,247.5 286.0,247.5 286.5,247.0 287.0,246.5 288.0,246.5 288.5,246.0 289.0,245.5 290.0,245.5 290.5,245.0 291.0,244.5 292.0,244.5 292.5,244.0 293.0,243.5 293.5,243.0 294.0,242.5 295.0,242.5 296.0,242.5 296.5,242.0 297.0,241.5 298.0,241.5 298.5,242.0 298.5,243.0 298.5,244.0 299.0,244.5 299.5,245.0 299.5,246.0 299.5,247.0 299.5,248.0 300.0,248.5 300.5,249.0 300.0,249.5 299.5,250.0 300.0,250.5 300.5,251.0 300.5,252.0 300.5,253.0 301.0,253.5 301.5,254.0 301.5,255.0 301.5,256.0 302.0,256.5 302.5,257.0 302.5,258.0 302.5,259.0 302.5,260.0 302.0,260.5 301.0,260.5 300.5,261.0 300.0,261.5 299.0,261.5 298.5,262.0 298.0,262.5 297.0,262.5 296.5,263.0 296.0,263.5 295.0,263.5 294.5,264.0 294.0,264.5 293.0,264.5 292.5,265.0 292.0,265.5 291.0,265.5 290.5,266.0 290.0,266.5 289.5,267.0 289.0,267.5 288.0,267.5 287.5,268.0 287.0,268.5 286.0,268.5 285.5,269.0 285.0,269.5 284.5,270.0 284.0,270.5 283.0,270.5 282.5,271.0 282.0,271.5 281.0,271.5 280.0,271.5 279.5,272.0 279.0,272.5 278.0,272.5 277.5,273.0 277.0,273.5 276.0,273.5 275.5,274.0 275.0,274.5 274.5,275.0 274.0,275.5 273.0,275.5 272.5,276.0 272.0,276.5 271.0,276.5 270.5,277.0 270.0,277.5 269.0,277.5 268.5,278.0 268.0,278.5 267.5,279.0 267.0,279.5 266.0,279.5 265.0,279.5 264.5,280.0 264.0,280.5 263.0,280.5 262.5,281.0 262.0,281.5" fill="rgb(56,111,179)"/>
<polygon points="233.0,282.5 232.0,282.5 231.5,282.0 231.5,281.0 232.0,280.5 232.5,280.0 232.5,279.0 233.0,278.5 233.5,278.0 233.5,277.0 233.5,276.0 234.0,275.5 234.5,275.0 234.5,274.0 235.0,273.5 235.5,273.0 235.5,272.0 235.5,271.0 236.0,270.5 236.5,270.0 236.5,269.0 237.0,268.5 237.5,268.0 237.5,267.0 237.5,266.0 238.0,265.5 238.5,265.0 238.5,264.0 239.0,263.5 239.5,263.0 239.5,262.0 239.5,261.0 240.0,260.5 240.5,260.0 240.5,259.0 241.0,258.5 241.5,258.0 241.5,257.0 242.0,256.5 242.5,256.0 242.5,255.0 243.0,254.5 243.5,254.0 243.5,253.0 243.5,252.0 244.0,251.5 244.5,251.0 245.0,250.5 246.0,250.5 246.5,251.0 246.5,252.0 246.5,253.0 246.5,254.0 246.5,255.0 246.5,256.0 246.5,257.0 247.0,257.5 247.5,258.0 247.5,259.0 247.5,260.0 247.5,261.0 247.5,262.0 247.5,263.0 247.5,264.0 248.0,264.5 248.5,265.0 248.5,266.0 248.5,267.0 248.5,268.0 248.5,269.0 248.5,270.0 249.0,270.5 249.5,271.0 249.0,271.5 248.5,272.0 248.5,273.0 248.0,273.5 247.5,274.0 247.5,275.0 247.0,275.5 246.5,276.0 246.0,276.5 245.0,276.5 244.5,277.0 244.0,277.5 243.0,277.5 242.0,277.5 241.5,278.0 241.0,278.5 240.0,278.5 239.5,279.0 239.0,279.5 238.0,279.5 237.5,280.0 237.0,280.5 236.0,280.5 235.5,281.0 235.0,281.5 234.0,281.5 233.5,282.0 233.0,282.5" fill="rgb(56,111,179)"/>
<polygon points="172.0,279.5 171.0,279.5 170.0,279.5 169.5,279.0 169.0,278.5 168.0,278.5 167.0,278.5 166.0,278.5 165.0,278.5 164.0,278.5 163.0,278.5 162.0,278.5 161.0,278.5 160.5,278.0 160.0,277.5 159.0,277.5 158.0,277.5 157.0,277.5 156.0,277.5 155.0,277.5 154.0,277.5 153.0,277.5 152.0,277.5 151.5,277.0 151.0,276.5 150.0,276.5 149.0,276.5 148.0,276.5 147.0,276.5 146.0,276.5 145.0,276.5 144.0,276.5 143.5,276.0 143.0,275.5 142.0,275.5 141.0,275.5 140.0,275.5 139.0,275.5 138.0,275.5 137.0,275.5 136.5,276.0 136.0,276.5 135.0,276.5 134.0,276.5 133.5,276.0 133.0,275.5 132.5,275.0 133.0,274.5 134.0,274.5 134.5,274.0 135.0,273.5 136.0,273.5 136.5,273.0 137.0,272.5 138.0,272.5 138.5,272.0 139.0,271.5 140.0,271.5 140.5,271.0 141.0,270.5 142.0,270.5 142.5,270.0 143.0,269.5 144.0,269.5 144.5,269.0 145.0,268.5 146.0,268.5 146.5,268.0 147.0,267.5 148.0,267.5 148.5,267.0 149.0,266.5 150.0,266.5 150.5,266.0 151.0,265.5 152.0,265.5 153.0,265.5 153.5,265.0 154.0,264.5 155.0,264.5 155.5,264.0 156.0,263.5 157.0,263.5 158.0,263.5 158.5,263.0 159.0,262.5 160.0,262.5 160.5,262.0 161.0,261.5 162.0,261.5 162.5,261.0 163.0,260.5 164.0,260.5 164.5,260.0 165.0,259.5 166.0,259.5 167.0,259.5 168.0,259.5 169.0,259.5 169.5,259.0 170.0,258.5 171.0,258.5 172.0,258.5 172.5,258.0 173.0,257.5 174.0,257.5 175.0,257.5 175.5,257.0 176.0,256.5 177.0,256.5 178.0,256.5 178.5,256.0 179.0,255.5 180.0,255.5 180.5,255.0 181.0,254.5 181.5,255.0 181.5,256.0 181.5,257.0 181.0,257.5 180.5,258.0 180.5,259.0 180.5,260.0 180.0,260.5 179.5,261.0 179.5,262.0 179.0,262.5 178.5,263.0 178.5,264.0 178.5,265.0 178.0,265.5 177.5,266.0 177.5,267.0 177.5,268.0 177.0,268.5 176.5,269.0 176.5,270.0 176.0,270.5 175.5,271.0 175.5,272.0 175.0,272.5 174.5,273.0 174.5,274.0 174.0,274.5 173.5,275.0 173.5,276.0 173.5,277.0 173.0,277.5 172.5,278.0 172.5,279.0 172.0,279.5" fill="rgb(56,111,179)"/>
<polygon points="286.0,331.5 285.5,331.0 285.0,330.5 284.5,330.0 284.5,329.0 284.5,328.0 284.5,327.0 284.0,326.5 283.5,326.0 283.5,325.0 283.0,324.5 282.5,324.0 282.5,323.0 282.0,322.5 281.5,322.0 281.0,321.5 280.5,321.0 280.5,320.0 280.5,319.0 281.0,318.5 281.5,318.0 282.0,317.5 283.0,317.5 283.5,317.0 284.0,316.5 284.5,316.0 285.0,315.5 285.5,315.0 286.0,314.5 287.0,314.5 287.5,314.0 288.0,313.5 289.0,313.5 289.5,313.0 290.0,312.5 290.5,312.0 291.0,311.5 291.5,311.0 292.0,310.5 292.5,310.0 293.0,309.5 294.0,309.5 294.5,309.0 295.0,308.5 295.5,309.0 295.5,310.0 295.0,310.5 294.5,311.0 294.5,312.0 294.5,313.0 294.5,314.0 294.0,314.5 293.5,315.0 293.5,316.0 293.0,316.5 292.5,317.0 292.5,318.0 292.0,318.5 291.5,319.0 291.5,320.0 291.0,320.5 290.5,321.0 290.5,322.0 290.5,323.0 290.0,323.5 289.5,324.0 289.5,325.0 289.0,325.5 288.5,326.0 288.5,327.0 288.0,327.5 287.5,328.0 287.5,329.0 287.5,330.0 287.0,330.5 286.5,331.0 286.0,331.5" fill="rgb(56,111,179)"/>
<polygon points="257.0,358.5 256.5,358.0 256.0,357.5 255.5,357.0 255.5,356.0 255.0,355.5 254.5,355.0 254.0,354.5 253.5,354.0 253.0,353.5 252.5,353.0 252.0,352.5 251.5,352.0 251.5,351.0 251.0,350.5 250.5,350.0 250.0,349.5 249.5,349.0 249.5,348.0 249.0,347.5 248.5,347.0 248.0,346.5 247.5,346.0 247.0,345.5 246.5,345.0 246.0,344.5 245.5,344.0 245.0,343.5 244.5,343.0 244.5,342.0 244.0,341.5 243.5,341.0 243.0,340.5 242.5,340.0 242.5,339.0 242.5,338.0 242.5,337.0 242.5,336.0 243.0,335.5 244.0,335.5 244.5,335.0 245.0,334.5 246.0,334.5 246.5,334.0 247.0,333.5 248.0,333.5 249.0,333.5 249.5,333.0 250.0,332.5 251.0,332.5 252.0,332.5 252.5,332.0 253.0,331.5 254.0,331.5 254.5,331.0 255.0,330.5 256.0,330.5 257.0,330.5 257.5,330.0 258.0,329.5 258.5,329.0 259.0,328.5 260.0,328.5 261.0,328.5 261.5,328.0 262.0,327.5 263.0,327.5 263.5,327.0 264.0,326.5 265.0,326.5 265.5,326.0 266.0,325.5 267.0,325.5 267.5,325.0 268.0,324.5 269.0,324.5 270.0,324.5 270.5,324.0 271.0,323.5 272.0,323.5 273.0,323.5 273.5,324.0 273.5,325.0 274.0,325.5 274.5,326.0 275.0,326.5 275.5,327.0 275.5,328.0 275.5,329.0 276.0,329.5 276.5,330.0 276.5,331.0 277.0,331.5 277.5,332.0 278.0,332.5 278.5,333.0 278.5,334.0 279.0,334.5 279.5,335.0 279.5,336.0 280.0,336.5 280.5,337.0 280.0,337.5 279.5,338.0 279.0,338.5 278.5,339.0 278.5,340.0 278.0,340.5 277.0,340.5 276.5,341.0 276.0,341.5 275.5,342.0 275.5,343.0 275.0,343.5 274.0,343.5 273.5,344.0 273.0,344.5 272.5,345.0 272.0,345.5 271.5,346.0 271.0,346.5 270.0,346.5 269.5,347.0 269.0,347.5 268.5,348.0 268.0,348.5 267.5,349.0 267.0,349.5 266.5,350.0 266.0,350.5 265.5,351.0 265.0,351.5 264.5,352.0 264.0,352.5 263.5,353.0 263.0,353.5 262.5,354.0 262.0,354.5 261.5,355.0 261.0,355.5 260.5,356.0 260.0,356.5 259.5,357.0 259.0,357.5 258.0,357.5 257.5,358.0 257.0,358.5" fill="rgb(56,111,179)"/>
<polygon points="124.0,379.5 123.5,379.0 123.0,378.5 122.0,378.5 121.5,378.0 121.0,377.5 120.5,377.0 120.0,376.5 119.5,376.0 119.0,375.5 118.0,375.5 117.5,375.0 117.0,374.5 116.5,374.0 116.0,373.5 115.5,373.0 115.0,372.5 114.0,372.5 113.5,372.0 113.0,371.5 112.5,371.0 112.0,370.5 111.0,370.5 110.5,370.0 110.0,369.5 109.0,369.5 108.5,369.0 108.0,368.5 107.0,368.5 106.5,368.0 106.0,367.5 105.0,367.5 104.5,367.0 104.5,366.0 104.0,365.5 103.0,365.5 102.5,365.0 102.0,364.5 101.5,364.0 101.0,363.5 100.5,363.0 100.0,362.5 99.0,362.5 98.5,362.0 98.0,361.5 97.5,361.0 97.0,360.5 96.0,360.5 95.5,360.0 95.0,359.5 94.5,359.0 94.0,358.5 93.5,358.0 93.0,357.5 92.5,357.0 92.0,356.5 91.5,356.0 91.0,355.5 90.5,355.0 90.5,354.0 90.0,353.5 89.5,353.0 89.0,352.5 88.5,352.0 88.0,351.5 87.5,351.0 87.0,350.5 86.5,350.0 86.5,349.0 86.0,348.5 85.5,348.0 85.5,347.0 85.0,346.5 84.5,346.0 84.0,345.5 83.5,345.0 83.5,344.0 83.0,343.5 82.5,343.0 82.0,342.5 81.5,342.0 81.5,341.0 81.0,340.5 80.5,340.0 80.0,339.5 79.5,339.0 79.0,338.5 78.5,338.0 78.5,337.0 78.0,336.5 77.5,336.0 77.0,335.5 76.5,335.0 77.0,334.5 78.0,334.5 78.5,334.0 79.0,333.5 80.0,333.5 81.0,333.5 82.0,333.5 83.0,333.5 84.0,333.5 85.0,333.5 86.0,333.5 87.0,333.5 88.0,333.5 89.0,333.5 90.0,333.5 91.0,333.5 91.5,333.0 92.0,332.5 93.0,332.5 94.0,332.5 95.0,332.5 96.0,332.5 97.0,332.5 98.0,332.5 99.0,332.5 100.0,332.5 101.0,332.5 102.0,332.5 103.0,332.5 104.0,332.5 105.0,332.5 106.0,332.5 106.5,332.0 107.0,331.5 108.0,331.5 109.0,331.5 110.0,331.5 111.0,331.5 112.0,331.5 113.0,331.5 114.0,331.5 115.0,331.5 116.0,331.5 117.0,331.5 117.5,331.0 118.0,330.5 119.0,330.5 120.0,330.5 121.0,330.5 122.0,330.5 123.0,330.5 124.0,330.5 124.5,331.0 124.5,332.0 124.5,333.0 124.5,334.0 124.5,335.0 124.5,336.0 124.5,337.0 124.5,338.0 124.5,339.0 124.5,340.0 124.5,341.0 124.5,342.0 124.5,343.0 124.5,344.0 124.5,345.0 124.5,346.0 124.5,347.0 124.5,348.0 124.5,349.0 124.5,350.0 124.5,351.0 124.5,352.0 124.5,353.0 124.5,354.0 124.5,355.0 124.5,356.0 124.5,357.0 124.5,358.0 124.5,359.0 124.5,360.0 124.5,361.0 124.5,362.0 124.5,363.0 124.5,364.0 124.5,365.0 124.5,366.0 124.5,367.0 124.5,368.0 124.5,369.0 124.5,370.0 124.5,371.0 124.5,372.0 124.5,373.0 124.5,374.0 124.5,375.0 124.5,376.0 124.5,377.0 124.5,378.0 124.5,379.0 124.0,379.5" fill="rgb(56,111,179)"/>
<polygon points="181.0,365.5 180.0,365.5 179.5,365.0 179.0,364.5 178.5,364.0 178.0,363.5 177.0,363.5 176.5,363.0 176.0,362.5 175.0,362.5 174.5,362.0 174.0,361.5 173.0,361.5 172.5,361.0 172.0,360.5 171.0,360.5 170.5,360.0 170.0,359.5 169.5,359.0 169.0,358.5 168.0,358.5 167.5,358.0 167.0,357.5 166.0,357.5 165.5,357.0 165.0,356.5 164.0,356.5 163.5,356.0 163.0,355.5 162.0,355.5 161.5,355.0 161.0,354.5 160.5,354.0 160.0,353.5 159.5,353.0 159.5,352.0 159.5,351.0 160.0,350.5 160.5,350.0 160.5,349.0 160.5,348.0 160.5,347.0 161.0,346.5 161.5,346.0 161.5,345.0 161.5,344.0 161.5,343.0 162.0,342.5 162.5,342.0 162.5,341.0 163.0,340.5 163.5,340.0 163.5,339.0 164.0,338.5 165.0,338.5 165.5,339.0 166.0,339.5 167.0,339.5 168.0,339.5 169.0,339.5 170.0,339.5 170.5,340.0 171.0,340.5 172.0,340.5 173.0,340.5 174.0,340.5 174.5,341.0 175.0,341.5 176.0,341.5 177.0,341.5 178.0,341.5 179.0,341.5 179.5,342.0 180.0,342.5 181.0,342.5 182.0,342.5 183.0,342.5 184.0,342.5 184.5,343.0 185.0,343.5 186.0,343.5 187.0,343.5 188.0,343.5 189.0,343.5 190.0,343.5 190.5,344.0 191.0,344.5 192.0,344.5 193.0,344.5 194.0,344.5 194.5,345.0 195.0,345.5 196.0,345.5 197.0,345.5 198.0,345.5 199.0,345.5 200.0,345.5 200.5,346.0 201.0,346.5 202.0,346.5 203.0,346.5 204.0,346.5 204.5,347.0 205.0,347.5 206.0,347.5 207.0,347.5 208.0,347.5 209.0,347.5 209.5,348.0 210.0,348.5 211.0,348.5 212.0,348.5 213.0,348.5 213.5,349.0 214.0,349.5 215.0,349.5 216.0,349.5 217.0,349.5 217.5,350.0 217.5,351.0 217.0,351.5 216.5,352.0 216.0,352.5 215.5,353.0 215.0,353.5 214.0,353.5 213.0,353.5 212.0,353.5 211.5,354.0 211.0,354.5 210.0,354.5 209.0,354.5 208.5,355.0 208.0,355.5 207.0,355.5 206.0,355.5 205.0,355.5 204.5,356.0 204.0,356.5 203.0,356.5 202.0,356.5 201.5,357.0 201.0,357.5 200.0,357.5 199.0,357.5 198.0,357.5 197.0,357.5 196.5,358.0 196.0,358.5 195.0,358.5 194.0,358.5 193.0,358.5 192.5,359.0 192.0,359.5 191.0,359.5 190.5,360.0 190.0,360.5 189.0,360.5 188.0,360.5 187.0,360.5 186.5,361.0 186.0,361.5 185.5,362.0 185.0,362.5 184.5,363.0 184.0,363.5 183.5,364.0 183.0,364.5 182.0,364.5 181.5,365.0 181.0,365.5" fill="rgb(56,111,179)"/>
<polygon points="186.0,389.5 185.0,389.5 184.0,389.5 183.5,389.0 183.5,388.0 184.0,387.5 184.5,387.0 184.5,386.0 184.5,385.0 185.0,384.5 185.5,384.0 185.5,383.0 186.0,382.5 186.5,382.0 186.5,381.0 187.0,380.5 187.5,380.0 187.5,379.0 188.0,378.5 189.0,378.5 189.5,378.0 190.0,377.5 191.0,377.5 191.5,377.0 192.0,376.5 193.0,376.5 193.5,376.0 193.5,375.0 194.0,374.5 194.5,375.0 195.0,375.5 195.5,375.0 196.0,374.5 196.5,374.0 197.0,373.5 198.0,373.5 198.5,373.0 199.0,372.5 200.0,372.5 200.5,372.0 201.0,371.5 201.5,371.0 202.0,370.5 203.0,370.5 203.5,370.0 204.0,369.5 205.0,369.5 206.0,369.5 206.5,369.0 207.0,368.5 207.5,368.0 208.0,367.5 209.0,367.5 209.5,367.0 210.0,366.5 211.0,366.5 211.5,366.0 212.0,365.5 213.0,365.5 213.5,365.0 214.0,364.5 215.0,364.5 215.5,364.0 216.0,363.5 216.5,363.0 217.0,362.5 218.0,362.5 218.5,362.0 219.0,361.5 219.5,361.0 220.0,360.5 221.0,360.5 221.5,360.0 222.0,359.5 223.0,359.5 223.5,359.0 224.0,358.5 225.0,358.5 225.5,358.0 226.0,357.5 227.0,357.5 227.5,357.0 228.0,356.5 229.0,356.5 230.0,356.5 230.5,356.0 231.0,355.5 231.5,355.0 232.0,354.5 233.0,354.5 233.5,354.0 234.0,353.5 235.0,353.5 236.0,353.5 237.0,353.5 237.5,354.0 237.5,355.0 238.0,355.5 238.5,356.0 239.0,356.5 239.5,357.0 240.0,357.5 240.5,358.0 241.0,358.5 241.5,359.0 242.0,359.5 242.5,360.0 243.0,360.5 243.5,361.0 244.0,361.5 244.5,362.0 245.0,362.5 245.5,363.0 246.0,363.5 246.5,364.0 246.5,365.0 246.0,365.5 245.0,365.5 244.5,366.0 244.0,366.5 243.0,366.5 242.5,367.0 242.0,367.5 241.5,368.0 241.0,368.5 240.0,368.5 239.5,369.0 239.0,369.5 238.0,369.5 237.5,370.0 237.0,370.5 236.0,370.5 235.0,370.5 234.5,371.0 234.0,371.5 233.0,371.5 232.5,372.0 232.0,372.5 231.0,372.5 230.5,373.0 230.0,373.5 229.0,373.5 228.0,373.5 227.5,374.0 227.0,374.5 226.0,374.5 225.5,375.0 225.0,375.5 224.0,375.5 223.5,376.0 223.0,376.5 222.0,376.5 221.5,377.0 221.0,377.5 220.0,377.5 219.5,378.0 219.0,378.5 218.0,378.5 217.5,379.0 217.0,379.5 216.0,379.5 215.0,379.5 214.5,380.0 214.0,380.5 213.0,380.5 212.5,381.0 212.0,381.5 211.0,381.5 210.5,382.0 210.0,382.5 209.0,382.5 208.0,382.5 207.5,383.0 207.0,383.5 206.0,383.5 205.5,384.0 205.0,384.5 204.0,384.5 203.0,384.5 202.5,385.0 202.0,385.5 201.0,385.5 200.5,386.0 200.0,386.5 199.0,386.5 198.0,386.5 197.0,386.5 196.5,387.0 196.0,387.5 195.0,387.5 194.0,387.5 193.0,387.5 192.5,388.0 192.0,388.5 191.0,388.5 190.0,388.5 189.0,388.5 188.0,388.5 187.0,388.5 186.5,389.0 186.0,389.5" fill="rgb(56,111,179)"/>
<polygon points="166.0,392.5 165.0,392.5 164.5,392.0 164.0,391.5 163.0,391.5 162.0,391.5 161.0,391.5 160.0,391.5 159.5,391.0 159.0,390.5 158.0,390.5 157.0,390.5 156.0,390.5 155.0,390.5 154.5,390.0 154.0,389.5 153.0,389.5 152.0,389.5 151.0,389.5 150.0,389.5 149.5,389.0 149.0,388.5 148.0,388.5 147.0,388.5 146.0,388.5 145.0,388.5 144.5,388.0 144.0,387.5 143.0,387.5 142.0,387.5 141.0,387.5 140.0,387.5 139.5,387.0 139.0,386.5 138.0,386.5 137.0,386.5 136.0,386.5 135.5,386.0 136.0,385.5 136.5,385.0 136.5,384.0 136.5,383.0 137.0,382.5 137.5,382.0 137.5,381.0 137.5,380.0 137.5,379.0 138.0,378.5 138.5,378.0 138.5,377.0 138.5,376.0 138.5,375.0 138.5,374.0 138.5,373.0 138.5,372.0 138.5,371.0 138.5,370.0 138.0,369.5 137.5,369.0 137.5,368.0 137.5,367.0 137.5,366.0 137.5,365.0 137.5,364.0 137.0,363.5 136.5,363.0 136.5,362.0 136.5,361.0 136.5,360.0 136.5,359.0 136.5,358.0 136.5,357.0 136.5,356.0 137.0,355.5 137.5,356.0 138.0,356.5 138.5,357.0 139.0,357.5 140.0,357.5 141.0,357.5 141.5,358.0 142.0,358.5 143.0,358.5 143.5,359.0 144.0,359.5 144.5,360.0 145.0,360.5 146.0,360.5 147.0,360.5 147.5,361.0 148.0,361.5 148.5,362.0 149.0,362.5 149.5,363.0 150.0,363.5 151.0,363.5 151.5,364.0 152.0,364.5 152.5,365.0 153.0,365.5 154.0,365.5 154.5,366.0 155.0,366.5 155.5,367.0 156.0,367.5 157.0,367.5 158.0,367.5 158.5,368.0 159.0,368.5 160.0,368.5 160.5,369.0 161.0,369.5 162.0,369.5 162.5,370.0 163.0,370.5 164.0,370.5 164.5,371.0 165.0,371.5 165.5,372.0 166.0,372.5 166.5,373.0 167.0,373.5 168.0,373.5 168.5,374.0 169.0,374.5 170.0,374.5 170.5,375.0 171.0,375.5 171.5,376.0 172.0,376.5 173.0,376.5 174.0,376.5 174.5,377.0 174.0,377.5 173.5,378.0 173.5,379.0 173.0,379.5 172.5,380.0 172.5,381.0 172.5,382.0 172.0,382.5 171.5,383.0 171.5,384.0 171.0,384.5 170.5,385.0 170.5,386.0 170.0,386.5 169.5,387.0 169.5,388.0 169.0,388.5 168.5,389.0 168.0,389.5 167.5,390.0 167.5,391.0 167.0,391.5 166.5,392.0 166.0,392.5" fill="rgb(56,111,179)"/>
<polygon points="198.0,108.5 197.5,108.0 197.0,107.5 196.5,107.0 196.0,106.5 195.5,106.0 195.0,105.5 194.0,105.5 193.5,105.0 193.0,104.5 192.5,104.0 192.5,103.0 192.5,102.0 192.0,101.5 191.5,101.0 191.5,100.0 191.5,99.0 191.5,98.0 191.0,97.5 190.5,97.0 190.5,96.0 190.5,95.0 190.5,94.0 190.0,93.5 189.5,93.0 189.5,92.0 189.5,91.0 189.5,90.0 189.0,89.5 188.5,89.0 188.5,88.0 188.0,87.5 187.0,87.5 186.5,87.0 186.5,86.0 186.0,85.5 185.5,85.0 185.0,84.5 184.5,84.0 184.0,83.5 183.5,83.0 183.5,82.0 183.0,81.5 182.5,81.0 182.0,80.5 181.5,80.0 181.0,79.5 180.5,79.0 180.0,78.5 179.5,78.0 179.0,77.5 178.5,77.0 178.5,76.0 178.0,75.5 177.0,75.5 176.5,75.0 176.5,74.0 176.0,73.5 175.5,73.0 175.0,72.5 174.5,72.0 174.5,71.0 175.0,70.5 175.5,70.0 175.5,69.0 176.0,68.5 176.5,68.0 177.0,67.5 177.5,67.0 177.5,66.0 178.0,65.5 178.5,65.0 179.0,64.5 179.5,64.0 179.5,63.0 180.0,62.5 180.5,62.0 181.0,61.5 181.5,62.0 182.0,62.5 182.5,63.0 183.0,63.5 183.5,64.0 183.5,65.0 184.0,65.5 184.5,66.0 185.0,66.5 185.5,67.0 186.0,67.5 186.5,68.0 187.0,68.5 187.5,69.0 187.5,70.0 188.0,70.5 188.5,71.0 189.0,71.5 189.5,72.0 189.5,73.0 190.0,73.5 190.5,74.0 191.0,74.5 191.5,75.0 192.0,75.5 192.5,76.0 193.0,76.5 193.5,77.0 193.5,78.0 194.0,78.5 194.5,79.0 195.0,79.5 195.5,80.0 195.5,81.0 196.0,81.5 196.5,82.0 197.0,82.5 197.5,83.0 198.0,83.5 198.5,84.0 198.5,85.0 199.0,85.5 199.5,86.0 200.0,86.5 200.5,87.0 201.0,87.5 201.5,88.0 201.5,89.0 202.0,89.5 202.5,90.0 203.0,90.5 203.5,91.0 204.0,91.5 204.5,92.0 204.5,93.0 205.0,93.5 206.0,93.5 206.5,94.0 206.5,95.0 206.5,96.0 207.0,96.5 207.5,97.0 208.0,97.5 208.5,98.0 209.0,98.5 209.5,99.0 210.0,99.5 210.5,100.0 210.0,100.5 209.5,101.0 209.0,101.5 208.5,102.0 208.0,102.5 207.0,102.5 206.5,103.0 206.0,103.5 205.0,103.5 204.5,104.0 204.0,104.5 203.0,104.5 202.5,105.0 202.0,105.5 201.5,106.0 201.0,106.5 200.5,107.0 200.0,107.5 199.0,107.5 198.5,108.0 198.0,108.5" fill="rgb(70,157,219)"/>
<polygon points="180.0,121.5 179.0,121.5 178.0,121.5 177.5,121.0 177.0,120.5 176.0,120.5 175.0,120.5 174.0,120.5 173.0,120.5 172.0,120.5 171.0,120.5 170.5,120.0 170.0,119.5 169.0,119.5 168.0,119.5 167.0,119.5 166.0,119.5 165.0,119.5 164.5,119.0 164.0,118.5 163.0,118.5 162.0,118.5 161.0,118.5 160.0,118.5 159.0,118.5 158.5,118.0 158.0,117.5 157.0,117.5 156.0,117.5 155.0,117.5 154.0,117.5 153.0,117.5 152.5,117.0 152.0,116.5 151.0,116.5 150.0,116.5 149.0,116.5 148.0,116.5 147.0,116.5 146.5,116.0 146.0,115.5 145.0,115.5 144.0,115.5 143.0,115.5 142.5,115.0 142.0,114.5 141.0,114.5 140.0,114.5 139.0,114.5 138.0,114.5 137.5,114.0 138.0,113.5 138.5,113.0 139.0,112.5 139.5,112.0 140.0,111.5 140.5,111.0 141.0,110.5 141.5,110.0 141.5,109.0 142.0,108.5 142.5,108.0 143.0,107.5 143.5,107.0 143.5,106.0 144.0,105.5 144.5,105.0 145.0,104.5 145.5,104.0 146.0,103.5 146.5,103.0 146.5,102.0 147.0,101.5 148.0,101.5 148.5,101.0 149.0,100.5 149.5,100.0 150.0,99.5 150.5,99.0 150.5,98.0 151.0,97.5 151.5,97.0 152.0,96.5 152.5,96.0 152.5,95.0 153.0,94.5 153.5,94.0 154.0,93.5 154.5,93.0 155.0,92.5 155.5,92.0 156.0,91.5 156.5,91.0 157.0,90.5 157.5,90.0 158.0,89.5 158.5,89.0 159.0,88.5 159.5,88.0 159.5,87.0 160.0,86.5 160.5,86.0 161.0,85.5 161.5,85.0 162.0,84.5 162.5,84.0 163.0,83.5 163.5,83.0 164.0,82.5 165.0,82.5 165.5,83.0 166.0,83.5 166.5,84.0 166.5,85.0 167.0,85.5 167.5,86.0 168.0,86.5 169.0,86.5 169.5,87.0 170.0,87.5 170.5,88.0 171.0,88.5 171.5,89.0 171.5,90.0 172.0,90.5 173.0,90.5 173.5,91.0 173.5,92.0 174.0,92.5 174.5,93.0 175.0,93.5 175.5,94.0 176.0,94.5 176.5,95.0 177.0,95.5 177.5,96.0 177.5,97.0 177.5,98.0 178.0,98.5 178.5,99.0 179.0,99.5 179.5,100.0 179.5,101.0 180.0,101.5 180.5,102.0 180.5,103.0 180.5,104.0 181.0,104.5 181.5,105.0 181.5,106.0 182.0,106.5 182.5,107.0 182.5,108.0 182.5,109.0 183.0,109.5 183.5,110.0 184.0,110.5 184.5,111.0 184.5,112.0 185.0,112.5 185.5,113.0 185.5,114.0 186.0,114.5 186.5,115.0 186.5,116.0 186.0,116.5 185.5,117.0 185.0,117.5 184.5,118.0 184.0,118.5 183.0,118.5 182.5,119.0 182.0,119.5 181.5,120.0 181.0,120.5 180.5,121.0 180.0,121.5" fill="rgb(70,157,219)"/>
<polygon points="257.0,205.5 256.0,205.5 255.0,205.5 254.0,205.5 253.5,205.0 253.0,204.5 252.0,204.5 251.0,204.5 250.0,204.5 249.0,204.5 248.5,204.0 248.0,203.5 247.0,203.5 246.0,203.5 245.0,203.5 244.0,203.5 243.0,203.5 242.5,203.0 242.0,202.5 241.0,202.5 240.0,202.5 239.5,202.0 239.0,201.5 238.0,201.5 237.5,201.0 237.0,200.5 236.5,200.0 236.5,199.0 236.0,198.5 235.0,198.5 234.5,198.0 234.0,197.5 233.5,197.0 233.0,196.5 232.5,196.0 232.5,195.0 232.0,194.5 231.5,194.0 231.5,193.0 231.5,192.0 231.0,191.5 230.5,191.0 230.5,190.0 230.0,189.5 229.5,189.0 229.0,188.5 228.5,188.0 228.5,187.0 228.0,186.5 227.5,186.0 227.5,185.0 227.5,184.0 227.0,183.5 226.5,183.0 226.5,182.0 226.0,181.5 225.5,181.0 225.5,180.0 225.5,179.0 225.5,178.0 225.0,177.5 224.5,177.0 224.5,176.0 224.5,175.0 225.0,174.5 225.5,174.0 226.0,173.5 226.5,173.0 227.0,172.5 227.5,172.0 228.0,171.5 228.5,171.0 229.0,170.5 229.5,170.0 230.0,169.5 231.0,169.5 231.5,169.0 232.0,168.5 233.0,168.5 234.0,168.5 235.0,168.5 236.0,168.5 237.0,168.5 238.0,168.5 239.0,168.5 240.0,168.5 241.0,168.5 242.0,168.5 243.0,168.5 244.0,168.5 245.0,168.5 245.5,168.0 246.0,167.5 247.0,167.5 248.0,167.5 249.0,167.5 250.0,167.5 251.0,167.5 252.0,167.5 253.0,167.5 254.0,167.5 255.0,167.5 256.0,167.5 256.5,168.0 257.0,168.5 257.5,169.0 258.0,169.5 258.5,170.0 259.0,170.5 259.5,171.0 260.0,171.5 260.5,172.0 261.0,172.5 261.5,173.0 262.0,173.5 262.5,174.0 262.5,175.0 263.0,175.5 263.5,176.0 264.0,176.5 264.5,177.0 265.0,177.5 265.5,178.0 266.0,178.5 266.5,179.0 266.5,180.0 267.0,180.5 267.5,181.0 268.0,181.5 268.5,182.0 269.0,182.5 269.5,183.0 270.0,183.5 270.5,184.0 271.0,184.5 271.5,185.0 272.0,185.5 272.5,186.0 272.5,187.0 272.0,187.5 271.5,188.0 271.0,188.5 270.5,189.0 270.5,190.0 270.0,190.5 269.5,191.0 269.0,191.5 268.5,192.0 268.5,193.0 268.0,193.5 267.5,194.0 267.0,194.5 266.5,195.0 266.0,195.5 265.5,196.0 265.0,196.5 264.5,197.0 264.5,198.0 264.0,198.5 263.5,199.0 263.0,199.5 262.5,200.0 262.0,200.5 261.5,201.0 261.0,201.5 260.5,202.0 260.0,202.5 259.5,203.0 259.0,203.5 258.5,204.0 258.0,204.5 257.5,205.0 257.0,205.5" fill="rgb(70,157,219)"/>
<polygon points="119.0,212.5 118.5,212.0 118.0,211.5 117.0,211.5 116.0,211.5 115.5,211.0 115.0,210.5 114.0,210.5 113.5,210.0 113.0,209.5 112.5,209.0 112.0,208.5 111.5,208.0 111.0,207.5 110.5,207.0 110.0,206.5 109.5,206.0 109.0,205.5 108.0,205.5 107.5,205.0 107.0,204.5 106.0,204.5 105.5,204.0 105.0,203.5 104.5,203.0 104.0,202.5 103.0,202.5 102.5,202.0 102.0,201.5 101.0,201.5 100.5,201.0 100.0,200.5 99.0,200.5 98.5,200.0 98.0,199.5 97.5,199.0 97.0,198.5 96.0,198.5 95.0,198.5 94.5,198.0 94.0,197.5 93.0,197.5 92.5,197.0 92.0,196.5 91.0,196.5 90.5,196.0 90.0,195.5 89.0,195.5 88.5,195.0 88.0,194.5 87.0,194.5 86.5,194.0 86.0,193.5 85.0,193.5 84.5,193.0 84.0,192.5 83.0,192.5 82.5,192.0 82.0,191.5 81.5,191.0 82.0,190.5 82.5,190.0 82.5,189.0 83.0,188.5 83.5,188.0 83.5,187.0 84.0,186.5 84.5,186.0 84.5,185.0 85.0,184.5 85.5,184.0 85.5,183.0 86.0,182.5 86.5,182.0 87.0,181.5 87.5,181.0 87.5,180.0 88.0,179.5 88.5,179.0 89.0,178.5 89.5,178.0 90.0,177.5 90.5,177.0 90.5,176.0 91.0,175.5 91.5,175.0 92.0,174.5 93.0,174.5 94.0,174.5 94.5,175.0 95.0,175.5 96.0,175.5 96.5,175.0 97.0,174.5 98.0,174.5 99.0,174.5 99.5,174.0 100.0,173.5 101.0,173.5 101.5,173.0 102.0,172.5 103.0,172.5 103.5,172.0 104.0,171.5 104.5,172.0 105.0,172.5 105.5,173.0 105.5,174.0 105.5,175.0 106.0,175.5 106.5,176.0 106.5,177.0 107.0,177.5 107.5,178.0 107.5,179.0 108.0,179.5 108.5,180.0 108.5,181.0 109.0,181.5 109.5,182.0 109.5,183.0 110.0,183.5 110.5,184.0 111.0,184.5 111.5,185.0 111.5,186.0 111.5,187.0 112.0,187.5 112.5,188.0 112.5,189.0 112.5,190.0 113.0,190.5 113.5,191.0 113.5,192.0 114.0,192.5 114.5,193.0 114.5,194.0 114.5,195.0 114.5,196.0 114.5,197.0 114.5,198.0 115.0,198.5 115.5,199.0 115.5,200.0 115.5,201.0 116.0,201.5 116.5,202.0 116.5,203.0 116.5,204.0 116.5,205.0 117.0,205.5 117.5,206.0 117.5,207.0 118.0,207.5 118.5,208.0 118.5,209.0 118.5,210.0 119.0,210.5 119.5,211.0 119.5,212.0 119.0,212.5" fill="rgb(70,157,219)"/>
<polygon points="236.0,227.5 235.0,227.5 234.0,227.5 233.0,227.5 232.0,227.5 231.0,227.5 230.5,227.0 230.0,226.5 229.0,226.5 228.0,226.5 227.0,226.5 226.0,226.5 225.0,226.5 224.0,226.5 223.0,226.5 222.0,226.5 221.5,226.0 221.0,225.5 220.0,225.5 219.0,225.5 218.0,225.5 217.5,225.0 217.0,224.5 216.0,224.5 215.0,224.5 214.0,224.5 213.0,224.5 212.0,224.5 211.5,224.0 211.0,223.5 210.0,223.5 209.0,223.5 208.0,223.5 207.0,223.5 206.0,223.5 205.0,223.5 204.5,223.0 204.0,222.5 203.0,222.5 202.0,222.5 201.0,222.5 200.0,222.5 199.0,222.5 198.0,222.5 197.0,222.5 196.5,222.0 196.0,221.5 195.0,221.5 194.0,221.5 193.0,221.5 192.0,221.5 191.0,221.5 190.0,221.5 189.5,221.0 189.0,220.5 188.0,220.5 187.0,220.5 186.0,220.5 185.5,220.0 185.5,219.0 186.0,218.5 186.5,218.0 186.5,217.0 187.0,216.5 187.5,216.0 187.5,215.0 187.5,214.0 187.5,213.0 188.0,212.5 188.5,212.0 188.5,211.0 189.0,210.5 189.5,210.0 189.5,209.0 189.5,208.0 189.5,207.0 189.5,206.0 190.0,205.5 190.5,205.0 190.5,204.0 190.5,203.0 191.0,202.5 191.5,202.0 191.5,201.0 191.5,200.0 192.0,199.5 192.5,199.0 192.5,198.0 192.5,197.0 193.0,196.5 193.5,196.0 193.5,195.0 193.5,194.0 193.5,193.0 194.0,192.5 194.5,192.0 194.5,191.0 194.5,190.0 195.0,189.5 195.5,189.0 195.5,188.0 196.0,187.5 196.5,187.0 196.5,186.0 196.5,185.0 197.0,184.5 197.5,184.0 197.5,183.0 197.5,182.0 198.0,181.5 198.5,181.0 198.5,180.0 198.5,179.0 198.5,178.0 199.0,177.5 199.5,177.0 199.5,176.0 199.5,175.0 199.5,174.0 199.5,173.0 200.0,172.5 200.5,172.0 201.0,171.5 202.0,171.5 202.5,172.0 203.0,172.5 204.0,172.5 205.0,172.5 205.5,173.0 206.0,173.5 207.0,173.5 207.5,174.0 208.0,174.5 209.0,174.5 209.5,175.0 210.0,175.5 211.0,175.5 211.5,176.0 211.5,177.0 212.0,177.5 212.5,178.0 212.5,179.0 212.5,180.0 213.0,180.5 213.5,181.0 213.5,182.0 214.0,182.5 214.5,183.0 215.0,183.5 215.5,184.0 215.5,185.0 216.0,185.5 216.5,186.0 216.5,187.0 217.0,187.5 217.5,188.0 217.5,189.0 218.0,189.5 218.5,190.0 218.5,191.0 219.0,191.5 219.5,192.0 219.5,193.0 219.5,194.0 220.0,194.5 220.5,195.0 220.5,196.0 221.0,196.5 221.5,197.0 221.5,198.0 222.0,198.5 222.5,199.0 222.5,200.0 223.0,200.5 223.5,201.0 223.5,202.0 223.5,203.0 223.5,204.0 223.5,205.0 224.0,205.5 224.5,206.0 224.5,207.0 224.5,208.0 224.5,209.0 225.0,209.5 225.5,210.0 225.5,211.0 226.0,211.5 226.5,212.0 227.0,212.5 227.5,213.0 227.5,214.0 228.0,214.5 228.5,215.0 228.5,216.0 228.5,217.0 229.0,217.5 229.5,218.0 230.0,218.5 230.5,219.0 231.0,219.5 231.5,220.0 231.5,221.0 232.0,221.5 232.5,222.0 233.0,222.5 233.5,223.0 234.0,223.5 234.5,224.0 235.0,224.5 235.5,225.0 235.5,226.0 236.0,226.5 236.5,227.0 236.0,227.5" fill="rgb(70,157,219)"/>
<polygon points="179.0,206.5 178.5,206.0 178.0,205.5 177.5,205.0 177.5,204.0 177.5,203.0 177.0,202.5 176.5,202.0 176.5,201.0 176.0,200.5 175.5,200.0 175.5,199.0 175.0,198.5 174.5,198.0 174.5,197.0 174.0,196.5 173.5,196.0 173.5,195.0 173.5,194.0 173.0,193.5 172.5,193.0 172.5,192.0 172.5,191.0 172.5,190.0 172.0,189.5 171.5,189.0 171.5,188.0 171.5,187.0 171.0,186.5 170.5,186.0 170.5,185.0 170.5,184.0 170.5,183.0 170.5,182.0 170.0,181.5 169.5,181.0 169.5,180.0 169.0,179.5 168.5,179.0 168.0,178.5 167.5,178.0 168.0,177.5 169.0,177.5 170.0,177.5 171.0,177.5 171.5,177.0 172.0,176.5 173.0,176.5 174.0,176.5 175.0,176.5 176.0,176.5 176.5,176.0 177.0,175.5 178.0,175.5 179.0,175.5 180.0,175.5 181.0,175.5 181.5,175.0 182.0,174.5 183.0,174.5 184.0,174.5 185.0,174.5 186.0,174.5 186.5,174.0 187.0,173.5 188.0,173.5 188.5,174.0 188.0,174.5 187.5,175.0 187.5,176.0 187.0,176.5 186.5,177.0 186.5,178.0 186.5,179.0 186.0,179.5 185.5,180.0 185.5,181.0 185.5,182.0 185.0,182.5 184.5,183.0 184.5,184.0 184.0,184.5 183.5,185.0 183.5,186.0 183.5,187.0 183.0,187.5 182.5,188.0 182.5,189.0 182.5,190.0 182.0,190.5 181.5,191.0 181.5,192.0 181.5,193.0 181.5,194.0 181.5,195.0 181.5,196.0 181.0,196.5 180.5,197.0 180.5,198.0 180.5,199.0 180.5,200.0 180.5,201.0 180.0,201.5 179.5,202.0 179.5,203.0 179.5,204.0 179.5,205.0 179.5,206.0 179.0,206.5" fill="rgb(70,157,219)"/>
<polygon points="172.0,245.5 171.0,245.5 170.5,245.0 170.0,244.5 169.5,244.0 169.0,243.5 168.5,243.0 168.0,242.5 167.0,242.5 166.5,242.0 166.0,241.5 165.5,241.0 165.0,240.5 164.0,240.5 163.5,240.0 163.5,239.0 163.0,238.5 162.0,238.5 161.5,238.0 161.0,237.5 160.5,237.0 160.0,236.5 159.0,236.5 158.5,236.0 158.0,235.5 157.0,235.5 156.5,235.0 156.0,234.5 155.0,234.5 154.5,234.0 154.0,233.5 153.5,233.0 153.0,232.5 152.5,232.0 152.0,231.5 151.5,231.0 151.0,230.5 150.5,230.0 150.0,229.5 149.0,229.5 148.5,229.0 148.0,228.5 147.5,228.0 147.0,227.5 146.0,227.5 145.5,227.0 145.0,226.5 144.0,226.5 143.5,226.0 143.0,225.5 142.5,225.0 142.0,224.5 141.5,224.0 141.0,223.5 140.0,223.5 139.5,223.0 139.0,222.5 138.5,222.0 138.0,221.5 137.0,221.5 136.5,221.0 136.0,220.5 135.5,220.0 135.0,219.5 134.0,219.5 133.5,219.0 133.0,218.5 132.5,218.0 132.5,217.0 132.5,216.0 132.5,215.0 132.5,214.0 132.0,213.5 131.5,213.0 131.5,212.0 131.5,211.0 131.5,210.0 131.0,209.5 130.5,209.0 130.5,208.0 130.5,207.0 130.0,206.5 129.5,206.0 129.5,205.0 129.5,204.0 129.0,203.5 128.5,203.0 128.5,202.0 128.5,201.0 128.0,200.5 127.5,200.0 127.5,199.0 127.5,198.0 127.5,197.0 127.0,196.5 126.5,196.0 126.5,195.0 126.5,194.0 126.0,193.5 125.5,193.0 125.5,192.0 125.5,191.0 125.5,190.0 126.0,189.5 126.5,189.0 127.0,188.5 127.5,188.0 127.5,187.0 128.0,186.5 128.5,186.0 129.0,185.5 129.5,185.0 129.5,184.0 130.0,183.5 130.5,183.0 131.0,182.5 131.5,182.0 131.5,181.0 132.0,180.5 132.5,180.0 132.5,179.0 133.0,178.5 133.5,178.0 133.5,177.0 134.0,176.5 134.5,176.0 135.0,175.5 136.0,175.5 137.0,175.5 138.0,175.5 138.5,176.0 139.0,176.5 140.0,176.5 141.0,176.5 142.0,176.5 142.5,177.0 143.0,177.5 144.0,177.5 145.0,177.5 146.0,177.5 146.5,178.0 147.0,178.5 148.0,178.5 148.5,179.0 149.0,179.5 150.0,179.5 150.5,180.0 151.0,180.5 151.5,181.0 152.0,181.5 152.5,182.0 153.0,182.5 154.0,182.5 154.5,183.0 155.0,183.5 155.5,184.0 156.0,184.5 156.5,185.0 157.0,185.5 157.5,186.0 157.5,187.0 158.0,187.5 158.5,188.0 158.5,189.0 159.0,189.5 159.5,190.0 159.5,191.0 160.0,191.5 160.5,192.0 160.5,193.0 161.0,193.5 161.5,194.0 161.5,195.0 161.5,196.0 161.5,197.0 162.0,197.5 162.5,198.0 162.5,199.0 162.5,200.0 163.0,200.5 163.5,201.0 163.5,202.0 163.5,203.0 164.0,203.5 164.5,204.0 164.5,205.0 165.0,205.5 165.5,206.0 165.5,207.0 165.5,208.0 166.0,208.5 166.5,209.0 166.5,210.0 167.0,210.5 167.5,211.0 168.0,211.5 168.5,212.0 168.5,213.0 168.5,214.0 169.0,214.5 169.5,215.0 169.5,216.0 169.5,217.0 170.0,217.5 170.5,218.0 170.5,219.0 171.0,219.5 171.5,220.0 171.5,221.0 171.5,222.0 171.5,223.0 172.0,223.5 172.5,224.0 172.5,225.0 172.5,226.0 173.0,226.5 173.5,227.0 173.5,228.0 173.5,229.0 174.0,229.5 174.5,230.0 175.0,230.5 175.5,231.0 175.5,232.0 175.5,233.0 176.0,233.5 176.5,234.0 177.0,234.5 177.5,235.0 177.5,236.0 178.0,236.5 178.5,237.0 178.0,237.5 177.5,238.0 178.0,238.5 178.5,239.0 178.5,240.0 178.5,241.0 178.0,241.5 177.5,242.0 177.0,242.5 176.5,243.0 176.0,243.5 175.0,243.5 174.0,243.5 173.5,244.0 173.0,244.5 172.5,245.0 172.0,245.5" fill="rgb(70,157,219)"/>
<polygon points="118.0,236.5 117.0,236.5 116.5,236.0 116.0,235.5 115.0,235.5 114.5,235.0 114.0,234.5 113.0,234.5 112.5,234.0 112.0,233.5 111.0,233.5 110.5,233.0 110.0,232.5 109.5,232.0 109.0,231.5 108.0,231.5 107.5,231.0 107.0,230.5 106.0,230.5 105.5,230.0 105.0,229.5 104.0,229.5 103.5,229.0 103.0,228.5 102.5,228.0 102.0,227.5 101.0,227.5 100.0,227.5 99.0,227.5 98.5,227.0 98.5,226.0 99.0,225.5 99.5,225.0 99.5,224.0 100.0,223.5 100.5,223.0 100.5,222.0 101.0,221.5 101.5,221.0 101.5,220.0 102.0,219.5 102.5,219.0 102.5,218.0 103.0,217.5 103.5,217.0 104.0,216.5 104.5,217.0 105.0,217.5 106.0,217.5 106.5,218.0 107.0,218.5 107.5,219.0 108.0,219.5 108.5,220.0 109.0,220.5 109.5,221.0 110.0,221.5 111.0,221.5 111.5,222.0 112.0,222.5 112.5,223.0 113.0,223.5 114.0,223.5 114.5,224.0 115.0,224.5 115.5,225.0 116.0,225.5 116.5,226.0 117.0,226.5 118.0,226.5 118.5,227.0 119.0,227.5 119.5,228.0 120.0,228.5 120.5,229.0 121.0,229.5 121.5,230.0 122.0,230.5 122.5,231.0 123.0,231.5 124.0,231.5 124.5,232.0 125.0,232.5 125.5,233.0 126.0,233.5 126.5,234.0 126.0,234.5 125.0,234.5 124.0,234.5 123.0,234.5 122.5,235.0 122.0,235.5 121.0,235.5 120.0,235.5 119.0,235.5 118.5,236.0 118.0,236.5" fill="rgb(70,157,219)"/>
<polygon points="58.0,293.5 57.0,293.5 56.5,293.0 56.5,292.0 56.5,291.0 56.0,290.5 55.5,290.0 55.5,289.0 55.5,288.0 55.5,287.0 55.5,286.0 55.5,285.0 55.0,284.5 54.5,284.0 54.5,283.0 54.5,282.0 54.5,281.0 54.5,280.0 54.0,279.5 53.5,279.0 54.0,278.5 54.5,278.0 54.5,277.0 54.5,276.0 54.5,275.0 54.5,274.0 54.5,273.0 54.5,272.0 54.5,271.0 55.0,270.5 56.0,270.5 56.5,271.0 56.5,272.0 57.0,272.5 57.5,273.0 57.5,274.0 58.0,274.5 58.5,275.0 58.5,276.0 59.0,276.5 59.5,277.0 59.5,278.0 60.0,278.5 60.5,279.0 61.0,279.5 61.5,280.0 62.0,280.5 63.0,280.5 64.0,280.5 65.0,280.5 66.0,280.5 67.0,280.5 67.5,281.0 67.5,282.0 67.5,283.0 68.0,283.5 68.5,284.0 68.5,285.0 68.5,286.0 69.0,286.5 69.5,287.0 69.5,288.0 69.5,289.0 69.0,289.5 68.0,289.5 67.0,289.5 66.5,290.0 66.0,290.5 65.0,290.5 64.0,290.5 63.5,291.0 63.0,291.5 62.0,291.5 61.0,291.5 60.5,292.0 60.0,292.5 59.0,292.5 58.5,293.0 58.0,293.5" fill="rgb(70,157,219)"/>
<polygon points="252.0,321.5 251.0,321.5 250.5,321.0 251.0,320.5 251.5,320.0 251.5,319.0 251.5,318.0 252.0,317.5 252.5,317.0 252.5,316.0 253.0,315.5 253.5,315.0 253.5,314.0 253.5,313.0 254.0,312.5 254.5,312.0 254.5,311.0 255.0,310.5 255.5,310.0 255.5,309.0 255.5,308.0 256.0,307.5 256.5,307.0 256.5,306.0 256.5,305.0 256.5,304.0 256.5,303.0 256.5,302.0 257.0,301.5 257.5,301.0 257.5,300.0 257.5,299.0 257.5,298.0 257.5,297.0 257.5,296.0 258.0,295.5 258.5,295.0 259.0,294.5 260.0,294.5 260.5,294.0 261.0,293.5 262.0,293.5 263.0,293.5 263.5,293.0 264.0,292.5 265.0,292.5 265.5,292.0 266.0,291.5 267.0,291.5 267.5,291.0 268.0,290.5 269.0,290.5 269.5,290.0 270.0,289.5 271.0,289.5 271.5,289.0 272.0,288.5 273.0,288.5 273.5,288.0 274.0,287.5 275.0,287.5 275.5,287.0 276.0,286.5 276.5,286.0 277.0,285.5 278.0,285.5 278.5,285.0 279.0,284.5 280.0,284.5 281.0,284.5 281.5,284.0 282.0,283.5 283.0,283.5 284.0,283.5 284.5,283.0 285.0,282.5 285.5,282.0 286.0,281.5 287.0,281.5 288.0,281.5 289.0,281.5 289.5,281.0 290.0,280.5 291.0,280.5 291.5,280.0 292.0,279.5 292.5,279.0 293.0,278.5 294.0,278.5 294.5,278.0 295.0,277.5 296.0,277.5 296.5,277.0 297.0,276.5 298.0,276.5 298.5,276.0 299.0,275.5 299.5,276.0 299.5,277.0 299.5,278.0 299.5,279.0 299.5,280.0 299.5,281.0 299.5,282.0 299.0,282.5 298.5,283.0 298.5,284.0 298.5,285.0 298.5,286.0 298.5,287.0 298.5,288.0 298.5,289.0 298.5,290.0 298.0,290.5 297.5,291.0 297.5,292.0 297.5,293.0 297.5,294.0 297.0,294.5 296.0,294.5 295.5,295.0 295.0,295.5 294.5,296.0 294.0,296.5 293.0,296.5 292.0,296.5 291.5,297.0 291.0,297.5 290.0,297.5 289.5,298.0 289.0,298.5 288.5,299.0 288.0,299.5 287.0,299.5 286.5,300.0 286.0,300.5 285.5,301.0 285.0,301.5 284.5,302.0 284.0,302.5 283.0,302.5 282.5,303.0 282.0,303.5 281.0,303.5 280.5,304.0 280.0,304.5 279.0,304.5 278.5,305.0 278.0,305.5 277.0,305.5 276.5,306.0 276.0,306.5 275.5,307.0 275.0,307.5 274.5,308.0 274.0,308.5 273.0,308.5 272.5,309.0 272.0,309.5 271.0,309.5 270.5,310.0 270.0,310.5 269.0,310.5 268.5,311.0 268.0,311.5 267.5,312.0 267.0,312.5 266.0,312.5 265.5,313.0 265.0,313.5 264.0,313.5 263.5,314.0 263.0,314.5 262.0,314.5 261.5,315.0 261.0,315.5 260.5,316.0 260.0,316.5 259.5,317.0 259.0,317.5 258.0,317.5 257.5,318.0 257.0,318.5 256.5,319.0 256.0,319.5 255.0,319.5 254.5,320.0 254.0,320.5 253.0,320.5 252.5,321.0 252.0,321.5" fill="rgb(70,157,219)"/>
<polygon points="175.0,308.5 174.0,308.5 173.5,308.0 173.5,307.0 174.0,306.5 174.5,306.0 174.5,305.0 174.5,304.0 175.0,303.5 175.5,303.0 175.5,302.0 176.0,301.5 176.5,301.0 176.5,300.0 177.0,299.5 177.5,299.0 177.5,298.0 177.5,297.0 178.0,296.5 178.5,296.0 178.5,295.0 179.0,294.5 179.5,294.0 179.5,293.0 180.0,292.5 180.5,292.0 180.5,291.0 180.5,290.0 181.0,289.5 181.5,289.0 181.5,288.0 181.5,287.0 182.0,286.5 182.5,286.0 182.5,285.0 183.0,284.5 183.5,284.0 183.5,283.0 184.0,282.5 184.5,282.0 184.5,281.0 185.0,280.5 185.5,280.0 185.5,279.0 185.5,278.0 186.0,277.5 187.0,277.5 188.0,277.5 188.5,278.0 189.0,278.5 189.5,279.0 190.0,279.5 190.5,280.0 191.0,280.5 191.5,281.0 192.0,281.5 193.0,281.5 193.5,282.0 194.0,282.5 194.5,283.0 195.0,283.5 196.0,283.5 196.5,284.0 197.0,284.5 198.0,284.5 198.5,285.0 199.0,285.5 199.5,286.0 200.0,286.5 200.5,287.0 201.0,287.5 201.5,288.0 202.0,288.5 202.5,289.0 203.0,289.5 203.5,290.0 204.0,290.5 205.0,290.5 205.5,291.0 206.0,291.5 206.5,292.0 207.0,292.5 208.0,292.5 208.5,293.0 208.0,293.5 207.0,293.5 206.0,293.5 205.5,294.0 205.0,294.5 204.0,294.5 203.5,295.0 203.0,295.5 202.0,295.5 201.5,296.0 201.0,296.5 200.0,296.5 199.0,296.5 198.5,297.0 198.0,297.5 197.0,297.5 196.0,297.5 195.5,298.0 195.0,298.5 194.5,299.0 194.0,299.5 193.0,299.5 192.5,300.0 192.0,300.5 191.0,300.5 190.5,301.0 190.0,301.5 189.0,301.5 188.5,302.0 188.0,302.5 187.0,302.5 186.0,302.5 185.5,303.0 185.0,303.5 184.0,303.5 183.5,304.0 183.0,304.5 182.0,304.5 181.5,305.0 181.0,305.5 180.0,305.5 179.5,306.0 179.0,306.5 178.0,306.5 177.5,307.0 177.0,307.5 176.0,307.5 175.5,308.0 175.0,308.5" fill="rgb(70,157,219)"/>
<polygon points="77.0,321.5 76.0,321.5 75.0,321.5 74.0,321.5 73.0,321.5 72.0,321.5 71.0,321.5 70.0,321.5 69.0,321.5 68.0,321.5 67.0,321.5 66.5,321.0 66.5,320.0 66.5,319.0 66.5,318.0 66.5,317.0 66.0,316.5 65.5,316.0 65.5,315.0 65.5,314.0 65.5,313.0 65.0,312.5 64.5,312.0 64.5,311.0 64.0,310.5 63.5,310.0 63.5,309.0 63.5,308.0 63.0,307.5 62.5,307.0 62.5,306.0 62.0,305.5 61.5,305.0 62.0,304.5 63.0,304.5 64.0,304.5 64.5,304.0 65.0,303.5 66.0,303.5 66.5,303.0 67.0,302.5 68.0,302.5 69.0,302.5 69.5,302.0 70.0,301.5 71.0,301.5 71.5,301.0 72.0,300.5 73.0,300.5 74.0,300.5 74.5,300.0 75.0,299.5 76.0,299.5 76.5,299.0 77.0,298.5 78.0,298.5 79.0,298.5 79.5,298.0 80.0,297.5 81.0,297.5 81.5,297.0 82.0,296.5 83.0,296.5 84.0,296.5 84.5,296.0 85.0,295.5 86.0,295.5 87.0,295.5 87.5,295.0 88.0,294.5 89.0,294.5 89.5,294.0 90.0,293.5 91.0,293.5 92.0,293.5 92.5,293.0 93.0,292.5 94.0,292.5 95.0,292.5 95.5,292.0 96.0,291.5 97.0,291.5 97.5,291.0 98.0,290.5 99.0,290.5 100.0,290.5 100.5,290.0 101.0,289.5 102.0,289.5 102.5,289.0 103.0,288.5 104.0,288.5 104.5,288.0 105.0,287.5 106.0,287.5 107.0,287.5 107.5,287.0 108.0,286.5 109.0,286.5 109.5,286.0 110.0,285.5 111.0,285.5 111.5,285.0 112.0,284.5 113.0,284.5 113.5,284.0 114.0,283.5 114.5,284.0 114.5,285.0 115.0,285.5 115.5,286.0 115.5,287.0 115.5,288.0 115.5,289.0 115.5,290.0 116.0,290.5 116.5,291.0 116.5,292.0 117.0,292.5 117.5,293.0 117.5,294.0 117.5,295.0 118.0,295.5 118.5,296.0 118.5,297.0 118.5,298.0 118.5,299.0 119.0,299.5 119.5,300.0 119.5,301.0 119.5,302.0 119.5,303.0 120.0,303.5 120.5,304.0 120.5,305.0 120.5,306.0 120.5,307.0 121.0,307.5 121.5,308.0 122.0,308.5 122.5,309.0 122.0,309.5 121.5,310.0 121.5,311.0 122.0,311.5 122.5,312.0 122.5,313.0 122.5,314.0 122.5,315.0 122.0,315.5 121.0,315.5 120.0,315.5 119.0,315.5 118.5,316.0 118.0,316.5 117.0,316.5 116.0,316.5 115.0,316.5 114.0,316.5 113.0,316.5 112.0,316.5 111.5,317.0 111.0,317.5 110.0,317.5 109.0,317.5 108.0,317.5 107.0,317.5 106.0,317.5 105.5,318.0 105.0,318.5 104.0,318.5 103.0,318.5 102.0,318.5 101.0,318.5 100.0,318.5 99.0,318.5 98.0,318.5 97.5,319.0 97.0,319.5 96.0,319.5 95.0,319.5 94.0,319.5 93.0,319.5 92.0,319.5 91.0,319.5 90.0,319.5 89.0,319.5 88.5,320.0 88.0,320.5 87.0,320.5 86.0,320.5 85.0,320.5 84.0,320.5 83.0,320.5 82.0,320.5 81.0,320.5 80.0,320.5 79.0,320.5 78.0,320.5 77.5,321.0 77.0,321.5" fill="rgb(70,157,219)"/>
<polygon points="230.0,340.5 229.5,340.0 229.0,339.5 228.5,339.0 228.0,338.5 227.5,338.0 227.0,337.5 226.5,337.0 226.0,336.5 225.5,336.0 225.0,335.5 224.0,335.5 223.5,335.0 223.0,334.5 222.5,334.0 222.0,333.5 221.0,333.5 220.5,333.0 220.0,332.5 219.5,332.0 219.0,331.5 218.5,331.0 218.0,330.5 217.5,330.0 217.0,329.5 216.5,329.0 216.0,328.5 215.0,328.5 214.5,328.0 214.0,327.5 213.0,327.5 212.5,327.0 212.0,326.5 211.5,326.0 211.0,325.5 210.5,325.0 210.0,324.5 209.5,324.0 209.0,323.5 208.5,323.0 208.0,322.5 207.5,322.0 207.0,321.5 206.0,321.5 205.5,321.0 205.0,320.5 204.5,320.0 204.0,319.5 203.0,319.5 202.5,319.0 202.0,318.5 201.5,318.0 201.0,317.5 200.0,317.5 199.5,317.0 199.5,316.0 199.0,315.5 198.5,315.0 198.0,314.5 197.0,314.5 196.5,314.0 196.5,313.0 197.0,312.5 197.5,312.0 198.0,311.5 198.5,311.0 199.0,310.5 200.0,310.5 200.5,310.0 201.0,309.5 202.0,309.5 203.0,309.5 203.5,309.0 204.0,308.5 205.0,308.5 205.5,308.0 206.0,307.5 207.0,307.5 208.0,307.5 208.5,307.0 209.0,306.5 210.0,306.5 210.5,306.0 211.0,305.5 212.0,305.5 212.5,305.0 213.0,304.5 214.0,304.5 214.5,304.0 215.0,303.5 215.5,303.0 216.0,302.5 217.0,302.5 217.5,302.0 218.0,301.5 219.0,301.5 219.5,301.0 220.0,300.5 221.0,300.5 221.5,300.0 222.0,299.5 223.0,299.5 224.0,299.5 224.5,299.0 225.0,298.5 226.0,298.5 226.5,298.0 227.0,297.5 227.5,297.0 228.0,296.5 229.0,296.5 229.5,296.0 230.0,295.5 231.0,295.5 232.0,295.5 232.5,295.0 233.0,294.5 234.0,294.5 234.5,294.0 235.0,293.5 236.0,293.5 236.5,293.0 237.0,292.5 238.0,292.5 238.5,292.0 239.0,291.5 240.0,291.5 240.5,291.0 241.0,290.5 242.0,290.5 242.5,290.0 243.0,289.5 244.0,289.5 244.5,289.0 245.0,288.5 245.5,288.0 246.0,287.5 247.0,287.5 247.5,288.0 247.5,289.0 248.0,289.5 248.5,290.0 248.0,290.5 247.5,291.0 247.5,292.0 247.5,293.0 247.5,294.0 247.0,294.5 246.5,295.0 246.5,296.0 246.5,297.0 246.5,298.0 246.0,298.5 245.5,299.0 245.5,300.0 245.5,301.0 245.5,302.0 245.0,302.5 244.5,303.0 244.5,304.0 244.5,305.0 244.5,306.0 244.0,306.5 243.5,307.0 243.5,308.0 243.5,309.0 243.5,310.0 243.0,310.5 242.5,311.0 242.5,312.0 242.5,313.0 242.0,313.5 241.5,314.0 241.5,315.0 241.0,315.5 240.5,316.0 240.5,317.0 240.5,318.0 240.5,319.0 240.0,319.5 239.5,320.0 239.5,321.0 239.5,322.0 239.0,322.5 238.5,323.0 238.5,324.0 238.5,325.0 238.0,325.5 237.5,326.0 237.0,326.5 236.0,326.5 235.0,326.5 234.5,327.0 234.0,327.5 233.0,327.5 232.0,327.5 231.5,328.0 231.5,329.0 231.5,330.0 231.5,331.0 231.5,332.0 231.5,333.0 231.5,334.0 231.5,335.0 231.0,335.5 230.5,336.0 230.5,337.0 230.5,338.0 230.5,339.0 230.5,340.0 230.0,340.5" fill="rgb(70,157,219)"/>
<polygon points="147.0,340.5 146.5,340.0 146.0,339.5 145.5,339.0 145.5,338.0 145.0,337.5 144.5,337.0 144.5,336.0 144.0,335.5 143.5,335.0 143.0,334.5 142.5,334.0 142.5,333.0 142.5,332.0 142.0,331.5 141.5,331.0 141.0,330.5 140.5,330.0 140.5,329.0 140.0,328.5 139.5,328.0 139.5,327.0 139.0,326.5 138.5,326.0 138.0,325.5 137.5,325.0 137.0,324.5 136.5,324.0 136.5,323.0 136.0,322.5 135.5,322.0 135.5,321.0 135.5,320.0 135.5,319.0 135.5,318.0 135.0,317.5 134.5,317.0 134.5,316.0 134.5,315.0 134.5,314.0 134.0,313.5 133.5,313.0 133.5,312.0 133.5,311.0 133.5,310.0 133.5,309.0 133.0,308.5 132.5,308.0 132.5,307.0 132.5,306.0 132.5,305.0 132.0,304.5 131.5,304.0 132.0,303.5 132.5,303.0 132.0,302.5 131.5,302.0 131.5,301.0 131.5,300.0 131.5,299.0 131.0,298.5 130.5,298.0 130.5,297.0 130.5,296.0 130.0,295.5 129.5,295.0 129.5,294.0 129.5,293.0 129.0,292.5 128.5,292.0 128.5,291.0 128.5,290.0 128.5,289.0 129.0,288.5 130.0,288.5 131.0,288.5 132.0,288.5 133.0,288.5 134.0,288.5 135.0,288.5 136.0,288.5 137.0,288.5 137.5,289.0 138.0,289.5 139.0,289.5 140.0,289.5 141.0,289.5 142.0,289.5 143.0,289.5 144.0,289.5 145.0,289.5 146.0,289.5 147.0,289.5 147.5,290.0 148.0,290.5 149.0,290.5 150.0,290.5 151.0,290.5 152.0,290.5 153.0,290.5 154.0,290.5 155.0,290.5 156.0,290.5 157.0,290.5 157.5,291.0 158.0,291.5 159.0,291.5 160.0,291.5 161.0,291.5 162.0,291.5 163.0,291.5 164.0,291.5 165.0,291.5 166.0,291.5 167.0,291.5 167.5,292.0 167.0,292.5 166.5,293.0 166.5,294.0 166.0,294.5 165.5,295.0 165.5,296.0 165.5,297.0 165.0,297.5 164.5,298.0 164.5,299.0 164.0,299.5 163.5,300.0 163.5,301.0 163.0,301.5 162.5,302.0 162.5,303.0 162.5,304.0 162.5,305.0 162.0,305.5 161.5,306.0 161.5,307.0 161.5,308.0 161.5,309.0 161.0,309.5 160.5,310.0 160.0,310.5 159.5,311.0 159.5,312.0 159.0,312.5 158.5,313.0 158.5,314.0 158.0,314.5 157.5,315.0 157.5,316.0 157.5,317.0 157.0,317.5 156.5,318.0 156.5,319.0 156.0,319.5 155.5,320.0 155.5,321.0 155.5,322.0 155.0,322.5 154.5,323.0 154.5,324.0 154.0,324.5 153.5,325.0 153.5,326.0 153.5,327.0 153.0,327.5 152.5,328.0 152.5,329.0 152.5,330.0 152.5,331.0 152.0,331.5 151.5,332.0 151.5,333.0 151.0,333.5 150.5,334.0 150.5,335.0 150.0,335.5 149.5,336.0 149.5,337.0 149.0,337.5 148.5,338.0 148.5,339.0 148.0,339.5 147.5,340.0 147.0,340.5" fill="rgb(70,157,219)"/>
<polygon points="205.0,338.5 204.0,338.5 203.5,338.0 203.0,337.5 202.0,337.5 201.0,337.5 200.5,337.0 200.0,336.5 199.0,336.5 198.0,336.5 197.5,336.0 197.0,335.5 196.0,335.5 195.0,335.5 194.5,335.0 194.0,334.5 193.0,334.5 192.0,334.5 191.0,334.5 190.5,334.0 190.0,333.5 189.0,333.5 188.0,333.5 187.5,333.0 187.0,332.5 186.0,332.5 185.0,332.5 184.5,332.0 184.0,331.5 183.0,331.5 182.0,331.5 181.5,331.0 181.0,330.5 180.0,330.5 179.0,330.5 178.5,330.0 178.0,329.5 177.0,329.5 176.0,329.5 175.5,329.0 175.0,328.5 174.0,328.5 173.0,328.5 172.5,328.0 172.0,327.5 171.0,327.5 170.0,327.5 169.5,327.0 169.0,326.5 168.5,326.0 168.5,325.0 169.0,324.5 169.5,324.0 170.0,323.5 171.0,323.5 172.0,323.5 172.5,323.0 173.0,322.5 174.0,322.5 175.0,322.5 175.5,322.0 176.0,321.5 177.0,321.5 178.0,321.5 178.5,321.0 179.0,320.5 180.0,320.5 181.0,320.5 182.0,320.5 183.0,320.5 183.5,321.0 184.0,321.5 185.0,321.5 185.5,322.0 186.0,322.5 186.5,323.0 187.0,323.5 187.5,324.0 188.0,324.5 188.5,325.0 189.0,325.5 190.0,325.5 190.5,326.0 191.0,326.5 191.5,327.0 192.0,327.5 192.5,328.0 193.0,328.5 194.0,328.5 194.5,329.0 194.5,330.0 195.0,330.5 196.0,330.5 196.5,331.0 197.0,331.5 198.0,331.5 198.5,332.0 199.0,332.5 199.5,333.0 200.0,333.5 200.5,334.0 201.0,334.5 202.0,334.5 202.5,335.0 203.0,335.5 203.5,336.0 204.0,336.5 204.5,337.0 205.0,337.5 205.5,338.0 205.0,338.5" fill="rgb(70,157,219)"/>
</svg>