<?xml version="1.0" encoding="UTF-8" ?>
<svg width="472"
     height="472"
     viewBox="0 0 472 472"
     fill="none"
     xmlns="http://www.w3.org/2000/svg">
    <path fill-rule="evenodd"
          clip-rule="evenodd"
          d="M234.75 74.357C233.238 76.751 232 79.271 232 79.957C232 80.644 235.274 85.129 239.275 89.925C245.805 97.751 246.732 99.405 248.327 106.072C249.677 111.716 250.729 113.96 252.71 115.416C255.145 117.206 255.487 117.226 257.908 115.715C259.334 114.825 262.188 113.167 264.25 112.029C266.313 110.89 268 109.534 268 109.014C268 108.144 264.189 102.867 246.145 78.75C242.544 73.938 239.126 70.001 238.549 70.002C237.972 70.003 236.262 71.962 234.75 74.357ZM214.414 98.122C211.161 102.039 206.922 107.101 204.993 109.372C199.327 116.042 194.773 122.106 195.15 122.477C195.745 123.063 209.834 125.75 224.175 128.013L237.849 130.171L240.925 127.898C244.524 125.236 244.678 124.037 242.05 119.136C240.977 117.136 238.755 112.575 237.111 109C234.079 102.406 224.304 91 221.686 91C220.939 91 217.666 94.205 214.414 98.122ZM278 122.22C278 123.441 279.322 130.079 280.937 136.97C282.552 143.862 284.608 152.988 285.505 157.25L287.136 165H297.568C303.306 165 307.984 164.662 307.965 164.25C307.946 163.838 307.343 160.766 306.625 157.424C305.283 151.173 304.424 149.837 288.557 129.308C281.322 119.948 278 117.717 278 122.22ZM261.203 129.554C258.839 131.424 256.188 133.355 255.311 133.846C252.874 135.21 254.336 139.045 259.47 144.756L263.963 149.752L263.342 159.207L262.721 168.662L267.126 169.895C270.248 170.769 272.311 170.832 274.21 170.11C276.628 169.191 276.835 168.721 276.334 165.296C276.028 163.208 275.215 159.7 274.527 157.5C273.417 153.953 268.616 134.205 267.415 128.25C266.834 125.365 266.376 125.461 261.203 129.554ZM180.158 140.459C177.321 144.581 175 148.612 175 149.417C175 150.222 178.048 154.17 181.772 158.191C185.497 162.211 189.274 166.544 190.166 167.821C191.159 169.243 195.903 171.842 202.414 174.533C212.74 178.8 213.197 178.894 218.521 177.824C221.534 177.219 224 176.418 224 176.045C224 175.671 218.453 169.861 211.673 163.132C199.466 151.017 199.335 150.838 198.092 144.588C196.958 138.879 196.488 138.084 193.169 136.253C185.867 132.225 185.813 132.243 180.158 140.459ZM210 142.154C210 145.14 211.416 146.943 222.264 157.765C235.666 171.134 235.724 171.162 244.688 168.5C249.38 167.107 249.782 166.734 250.358 163.25C251.607 155.694 251.188 154.335 245.556 147.696L240.111 141.279L228.306 140.594C221.813 140.218 215.037 139.655 213.25 139.343C210.113 138.797 210 138.895 210 142.154ZM164.82 159.75C163.048 161.831 159 168.488 159 169.321C159 169.643 161.231 169.642 163.958 169.319L168.916 168.731L173.1 177.866C175.402 182.89 177.586 187 177.954 187C178.323 187 179.661 185.597 180.929 183.882L183.235 180.763L180.951 176.632C179.695 174.359 177.455 170.7 175.974 168.5C174.493 166.3 172.531 163.037 171.615 161.25C169.761 157.634 167.119 157.05 164.82 159.75ZM294.826 176.916C288.489 177.398 286.689 177.935 284.491 180C282.196 182.155 281.915 183.038 282.451 186.404C283.279 191.602 289.709 204.913 292.799 207.825C295.91 210.758 297.674 211.387 307.28 212.993C314.953 214.275 315.094 214.26 317.626 211.897C321.26 208.503 329.979 196.748 329.99 195.227C329.996 194.527 326.592 189.914 322.426 184.977L314.852 176L308.676 176.166C305.279 176.257 299.047 176.594 294.826 176.916ZM158 181.5C156.625 182.286 153.925 182.946 152 182.966C148.952 182.999 148.092 183.617 145.34 187.752C141.891 192.934 139 198.408 139 199.757C139 200.228 142.262 202.163 146.25 204.056C156.354 208.853 165.048 213.856 168 216.572C170.559 218.927 175.923 221.41 176.723 220.61C176.969 220.365 176.006 216.701 174.585 212.468C173.163 208.236 172 204.036 171.999 203.136C171.997 199.728 163.048 180.065 161.5 180.068C160.95 180.07 159.375 180.714 158 181.5ZM257 181.973C257 183.677 254.131 193.125 244.895 221.844C243.772 225.333 243.064 228.398 243.321 228.655C243.717 229.05 255.392 230.922 283 235.016C290.437 236.118 294 236.167 294 235.164C294 234.704 292.442 232.329 290.538 229.885C285.873 223.896 282.254 216.909 281.431 212.3C281.057 210.21 278.072 202.949 274.796 196.165C269.263 184.706 268.545 183.697 264.67 181.937C259.227 179.466 257 179.476 257 181.973ZM234.586 184.097C229.684 185.14 225.457 186.209 225.194 186.473C224.931 186.736 225.235 187.578 225.871 188.344C226.507 189.11 227.875 192.97 228.913 196.92C230.936 204.628 235.079 214.955 236.159 214.983C236.522 214.992 237.383 211.738 238.072 207.75C239.116 201.717 241.796 193.076 245.516 183.75C246.363 181.625 246.171 181.632 234.586 184.097ZM191 184.845C191 185.31 189.2 188.475 187 191.879C184.8 195.283 183.001 198.84 183.003 199.784C183.005 200.728 184.58 206.621 186.503 212.879C188.426 219.137 190.008 224.987 190.017 225.879C190.031 227.259 196.806 232.351 212.126 242.5C213.786 243.6 218.021 246.637 221.536 249.25C225.051 251.863 228.325 254 228.81 254C229.296 254 231.112 253.292 232.846 252.427C236.787 250.461 237.044 246.759 233.664 240.692C232.379 238.387 230.315 233.361 229.077 229.524C227.84 225.687 225.564 219.837 224.019 216.524C222.475 213.211 220.534 208.208 219.706 205.407C217.32 197.331 214.457 192.589 210.182 189.626C204.569 185.736 191 182.354 191 184.845ZM327.5 214.17C324.2 216.97 318.417 222.163 314.648 225.709C308.816 231.197 307.868 232.555 308.278 234.829C308.716 237.255 316.598 256.931 317.488 257.822C318.023 258.356 329.598 252.37 334.433 249.059C336.67 247.527 341.12 245.039 344.322 243.53C347.525 242.021 350.362 240.221 350.627 239.529C351.127 238.228 349.884 235.728 342.412 223C339.99 218.875 337.249 214.037 336.319 212.25C335.39 210.463 334.375 209.018 334.065 209.039C333.754 209.061 330.8 211.37 327.5 214.17ZM128.549 218.346C126.597 221.836 125 224.999 125 225.375C125 225.75 123.468 229.307 121.596 233.278C118.245 240.39 114 252.871 114 255.614C114 257.14 124.952 269.5 126.304 269.5C127.851 269.5 149 226.525 149 223.38C149 222.136 147.492 220.492 144.937 218.951C142.703 217.603 139.308 215.488 137.393 214.25C135.478 213.012 133.503 212 133.005 212C132.506 212 130.501 214.856 128.549 218.346ZM158.199 229.527C155.83 234.404 155.502 236 156.869 236C157.347 236 161.393 238.071 165.861 240.602C173.962 245.192 173.996 245.2 178.991 244.002C181.746 243.341 184 242.508 184 242.15C184 240.865 163.141 225 161.452 225C160.873 225 159.409 227.037 158.199 229.527ZM251 243.443C251 243.686 251.956 245.506 253.125 247.487C255.909 252.206 255.81 254.386 252.419 263.03L249.587 270.247L252.044 272.144C253.395 273.187 255.551 274.931 256.835 276.02C258.119 277.109 259.502 278 259.907 278C260.313 278 263.537 280.02 267.072 282.489C270.608 284.958 274.184 286.983 275.019 286.989C275.967 286.996 278.317 283.228 281.269 276.969C283.871 271.452 286 266.511 286 265.988C286 265.465 287.439 262.119 289.199 258.551C290.958 254.983 292.159 251.826 291.868 251.534C291.576 251.243 285.025 249.666 277.309 248.031C269.594 246.395 262.063 244.594 260.575 244.029C257.898 243.011 251 242.589 251 243.443ZM192 249.856C188.425 251.312 185.05 252.781 184.5 253.12C183.95 253.46 181.813 254.281 179.75 254.946C177.688 255.611 176 256.563 176 257.063C176 257.562 174.653 260.159 173.007 262.834C169.703 268.204 166.665 269.898 145.75 278.031C139.327 280.529 135 282.764 135 283.585C135 286.321 138.29 293.101 139.381 292.615C145.358 289.956 169.659 280.009 170.191 280.005C170.571 280.002 174.846 278.154 179.691 275.899C184.536 273.643 190.75 270.927 193.5 269.863C203.094 266.152 217 259.634 217 258.849C217 257.611 201.679 247.055 200 247.136C199.175 247.176 195.575 248.4 192 249.856ZM154.765 252.527C152.099 255.006 150.095 256.004 147.765 256.015C144.698 256.028 144.359 256.397 142.165 262.096C140.88 265.433 140.049 268.382 140.317 268.65C140.585 268.918 145.686 267.061 151.652 264.522C161.802 260.203 165.925 257.242 165.978 254.235C165.997 253.141 160.399 248.966 159 249.031C158.725 249.044 156.819 250.617 154.765 252.527ZM346.5 253.663C342.65 255.671 336.8 258.836 333.5 260.696C330.2 262.557 324.656 265.43 321.18 267.081C315.33 269.86 314.9 270.285 315.41 272.792C316.08 276.081 317.982 288.206 317.992 289.25C318.011 291.093 320.216 290.18 336 281.797C362.281 267.84 360.899 269.022 359.012 262.116C358.469 260.127 357.551 256.587 356.973 254.25C356.396 251.912 355.378 250.003 354.711 250.006C354.045 250.01 350.35 251.655 346.5 253.663ZM299.682 263.26C293.852 276.861 288.836 290.169 289.347 290.68C290.463 291.797 304.863 284.595 305.852 282.426C307.056 279.783 304.139 258.995 302.566 259.01C301.98 259.016 300.682 260.928 299.682 263.26ZM230 265.807C205.378 274.145 181.089 286.708 193.477 284.697C195.389 284.387 204.276 285.001 213.227 286.062C222.177 287.123 229.591 287.993 229.703 287.995C230.519 288.014 239 266.473 239 264.381C239 262.71 239.275 262.666 230 265.807ZM111.766 283.387C111.306 287.465 113.113 300.446 114.306 301.639C115.218 302.551 127 297.795 127 296.515C127 295.846 126.506 293.881 125.902 292.149C125.11 289.877 124.179 289 122.557 289C120.038 289 118.026 287.05 115.595 282.25C113.371 277.859 112.355 278.161 111.766 283.387ZM350 286.952C346.975 288.55 342.7 290.612 340.5 291.534C338.3 292.455 331.717 295.525 325.87 298.355L315.24 303.5L314.52 308.976C314.124 311.988 312.495 317.737 310.9 321.752C309.305 325.767 308 329.265 308 329.526C308 330.894 311.385 329.606 316.064 326.457C318.959 324.508 324.067 321.327 327.414 319.388C338.364 313.044 340.448 311.774 344.639 308.886C346.916 307.318 349.962 305.585 351.407 305.035C352.853 304.486 354.43 302.998 354.913 301.729C356.202 298.339 357.38 283.996 356.367 284.023C355.89 284.036 353.025 285.354 350 286.952ZM241.21 290.75C236.947 300.245 231 314.923 231 315.949C231 317.7 232.376 317.234 245.687 310.974C252.734 307.659 260.206 304.167 262.291 303.213L266.082 301.48L260.791 297.221C251.936 290.094 246.051 286 244.662 286C243.936 286 242.382 288.137 241.21 290.75ZM159.5 296.991C153.45 299.601 141.832 304.317 133.683 307.471C121.434 312.212 118.983 313.492 119.547 314.853C121.607 319.827 124 327.148 124 328.475C124 329.589 125.085 330 128.028 330C133.006 330 159.357 327.305 167.5 325.964C170.8 325.42 174.963 324.735 176.75 324.442C179.751 323.95 180 323.619 180 320.121C180 318.038 179.667 316.001 179.26 315.594C178.613 314.946 175.321 304.105 173.182 295.575C172.779 293.966 172.01 292.559 171.474 292.448C170.938 292.337 165.55 294.382 159.5 296.991ZM282.42 306.426C271.376 312.001 260.464 317.3 258.17 318.201C255.817 319.125 254 320.503 254 321.363C254 322.201 255.839 324.375 258.086 326.194C267.571 333.869 271.144 336.69 275.579 340C278.159 341.925 281.799 344.797 283.668 346.383C285.538 347.969 287.285 349.048 287.551 348.782C287.817 348.516 288.364 345.661 288.767 342.437C289.448 336.99 289.718 336.512 292.583 335.691C295.45 334.869 295.885 334.096 298.802 324.653C303.203 310.407 306.171 298.085 305.473 296.957C305.148 296.431 304.346 296.065 303.691 296.144C303.036 296.223 293.464 300.85 282.42 306.426ZM186 298.822C186 299.824 186.629 302.636 187.398 305.072C188.166 307.507 189.808 314.45 191.046 320.5C192.671 328.441 194.172 332.891 196.442 336.5C198.171 339.25 200.456 343.188 201.52 345.25C202.584 347.313 203.951 349 204.556 349C205.764 349 208.315 343.552 212.518 332C214.018 327.875 216.043 323.093 217.016 321.373C217.99 319.654 219.106 316.792 219.497 315.014C219.888 313.235 221.305 309.299 222.646 306.266C223.987 303.233 224.953 300.646 224.792 300.517C224.385 300.19 191.011 296.963 188.25 296.983C186.746 296.995 186 297.604 186 298.822ZM348.327 319.282C346.772 320.538 343.816 322.675 341.757 324.032C337.498 326.84 337.164 328.581 339.996 333.226C341.094 335.027 341.994 337.288 341.996 338.25C342.005 342.436 344.778 339.299 348.203 331.227C354.237 317.009 354.263 314.489 348.327 319.282ZM230.75 330.771C222.212 333.611 223.949 334.998 244.078 341.415C264.96 348.072 267.605 348.074 257.794 341.421C255.432 339.82 250.889 336.37 247.698 333.755C241.235 328.458 238.927 328.051 230.75 330.771ZM323.5 333.852C312.515 338.927 309.801 340.109 305.337 341.761C298.753 344.197 298.316 347.529 303.716 354.111C305.797 356.647 308.85 360.574 310.5 362.838C312.15 365.101 314.06 366.963 314.745 366.976C316.366 367.007 338.015 347.087 337.953 345.621C337.927 345.004 336.422 341.8 334.608 338.5C330.887 331.73 329.421 331.117 323.5 333.852ZM173.917 339.402C173.688 339.624 164.95 340.354 154.5 341.024C144.05 341.695 135.133 342.578 134.685 342.987C133.982 343.628 139.741 352.874 147.266 363.186C149.549 366.315 161.388 375.579 166.602 378.318C168.196 379.155 171.944 381.675 174.931 383.92C177.917 386.164 180.73 388 181.181 388C181.631 388 182 376.975 182 363.5V339H178.167C176.058 339 174.146 339.181 173.917 339.402ZM220.495 348.008C219.544 349.547 217.027 359.043 217.012 361.15C217 362.772 235.858 374 238.594 374C239.283 374 241.119 372.955 242.673 371.679C245.474 369.379 248.061 368.481 265.5 363.754C271.512 362.125 274.601 360.795 274.805 359.75C275.151 357.982 272.724 357.343 243.516 351.511C233.625 349.536 224.561 347.677 223.375 347.379C222.189 347.082 220.893 347.364 220.495 348.008ZM282.34 366.364C277.853 368.697 273.578 371.079 272.84 371.659C272.103 372.238 267.034 375.07 261.577 377.953C245.878 386.244 244.411 387.358 242.458 392.47C241.497 394.986 240.973 397.306 241.292 397.626C242.558 398.891 258.484 394.715 268.21 390.568C296.598 378.464 304 374.747 304 372.597C304 370.622 294.557 361.996 292.466 362.062C291.385 362.096 286.828 364.032 282.34 366.364ZM194 367.057C194 368.739 194.504 373.169 195.121 376.902C196.051 382.535 195.974 384.602 194.668 389.058C193.802 392.011 193.221 394.555 193.378 394.711C193.698 395.032 222.871 401 224.118 401C224.964 401 232.46 386.069 231.851 385.597C229.397 383.695 219.8 377.863 217.5 376.875C215.85 376.166 212.475 374.217 210 372.543C206.012 369.846 195.309 364 194.359 364C194.162 364 194 365.376 194 367.057Z"
          fill="#469DDB" />
    <path fill-rule="evenodd"
          clip-rule="evenodd"
          d="M278 122.22C278 123.441 279.322 130.079 280.937 136.97C282.552 143.862 284.608 152.988 285.505 157.25L287.136 165H297.568C303.306 165 307.984 164.662 307.965 164.25C307.946 163.838 307.343 160.766 306.625 157.424C305.283 151.173 304.424 149.837 288.557 129.308C281.322 119.948 278 117.717 278 122.22ZM261.203 129.554C258.839 131.424 256.188 133.355 255.311 133.846C252.874 135.21 254.336 139.045 259.47 144.756L263.963 149.752L263.342 159.207L262.721 168.662L267.126 169.895C270.248 170.769 272.311 170.832 274.21 170.11C276.628 169.191 276.835 168.721 276.334 165.296C276.028 163.208 275.215 159.7 274.527 157.5C273.417 153.953 268.616 134.205 267.415 128.25C266.834 125.365 266.376 125.461 261.203 129.554ZM180.158 140.459C177.321 144.581 175 148.612 175 149.417C175 150.222 178.048 154.17 181.772 158.191C185.497 162.211 189.274 166.544 190.166 167.821C191.159 169.243 195.903 171.842 202.414 174.533C212.74 178.8 213.197 178.894 218.521 177.824C221.534 177.219 224 176.418 224 176.045C224 175.671 218.453 169.861 211.673 163.132C199.466 151.017 199.335 150.838 198.092 144.588C196.958 138.879 196.488 138.084 193.169 136.253C185.867 132.225 185.813 132.243 180.158 140.459ZM210 142.154C210 145.14 211.416 146.943 222.264 157.765C235.666 171.134 235.724 171.162 244.688 168.5C249.38 167.107 249.782 166.734 250.358 163.25C251.607 155.694 251.188 154.335 245.556 147.696L240.111 141.279L228.306 140.594C221.813 140.218 215.037 139.655 213.25 139.343C210.113 138.797 210 138.895 210 142.154ZM164.82 159.75C163.048 161.831 159 168.488 159 169.321C159 169.643 161.231 169.642 163.958 169.319L168.916 168.731L173.1 177.866C175.402 182.89 177.586 187 177.954 187C178.323 187 179.661 185.597 180.929 183.882L183.235 180.763L180.951 176.632C179.695 174.359 177.455 170.7 175.974 168.5C174.493 166.3 172.531 163.037 171.615 161.25C169.761 157.634 167.119 157.05 164.82 159.75ZM327.5 214.17C324.2 216.97 318.417 222.163 314.648 225.709C308.816 231.197 307.868 232.555 308.278 234.829C308.716 237.255 316.598 256.931 317.488 257.822C318.023 258.356 329.598 252.37 334.433 249.059C336.67 247.527 341.12 245.039 344.322 243.53C347.525 242.021 350.362 240.221 350.627 239.529C351.127 238.228 349.884 235.728 342.412 223C339.99 218.875 337.249 214.037 336.319 212.25C335.39 210.463 334.375 209.018 334.065 209.039C333.754 209.061 330.8 211.37 327.5 214.17ZM128.549 218.346C126.597 221.836 125 224.999 125 225.375C125 225.75 123.468 229.307 121.596 233.278C118.245 240.39 114 252.871 114 255.614C114 257.14 124.952 269.5 126.304 269.5C127.851 269.5 149 226.525 149 223.38C149 222.136 147.492 220.492 144.937 218.951C142.703 217.603 139.308 215.488 137.393 214.25C135.478 213.012 133.503 212 133.005 212C132.506 212 130.501 214.856 128.549 218.346ZM251 243.443C251 243.686 251.956 245.506 253.125 247.487C255.909 252.206 255.81 254.386 252.419 263.03L249.587 270.247L252.044 272.144C253.395 273.187 255.551 274.931 256.835 276.02C258.119 277.109 259.502 278 259.907 278C260.313 278 263.537 280.02 267.072 282.489C270.608 284.958 274.184 286.983 275.019 286.989C275.967 286.996 278.317 283.228 281.269 276.969C283.871 271.452 286 266.511 286 265.988C286 265.465 287.439 262.119 289.199 258.551C290.958 254.983 292.159 251.826 291.868 251.534C291.576 251.243 285.025 249.666 277.309 248.031C269.594 246.395 262.063 244.594 260.575 244.029C257.898 243.011 251 242.589 251 243.443ZM192 249.856C188.425 251.312 185.05 252.781 184.5 253.12C183.95 253.46 181.813 254.281 179.75 254.946C177.688 255.611 176 256.563 176 257.063C176 257.562 174.653 260.159 173.007 262.834C169.703 268.204 166.665 269.898 145.75 278.031C139.327 280.529 135 282.764 135 283.585C135 286.321 138.29 293.101 139.381 292.615C145.358 289.956 169.659 280.009 170.191 280.005C170.571 280.002 174.846 278.154 179.691 275.899C184.536 273.643 190.75 270.927 193.5 269.863C203.094 266.152 217 259.634 217 258.849C217 257.611 201.679 247.055 200 247.136C199.175 247.176 195.575 248.4 192 249.856ZM154.765 252.527C152.099 255.006 150.095 256.004 147.765 256.015C144.698 256.028 144.359 256.397 142.165 262.096C140.88 265.433 140.049 268.382 140.317 268.65C140.585 268.918 145.686 267.061 151.652 264.522C161.802 260.203 165.925 257.242 165.978 254.235C165.997 253.141 160.399 248.966 159 249.031C158.725 249.044 156.819 250.617 154.765 252.527ZM346.5 253.663C342.65 255.671 336.8 258.836 333.5 260.696C330.2 262.557 324.656 265.43 321.18 267.081C315.33 269.86 314.9 270.285 315.41 272.792C316.08 276.081 317.982 288.206 317.992 289.25C318.011 291.093 320.216 290.18 336 281.797C362.281 267.84 360.899 269.022 359.012 262.116C358.469 260.127 357.551 256.587 356.973 254.25C356.396 251.912 355.378 250.003 354.711 250.006C354.045 250.01 350.35 251.655 346.5 253.663ZM299.682 263.26C293.852 276.861 288.836 290.169 289.347 290.68C290.463 291.797 304.863 284.595 305.852 282.426C307.056 279.783 304.139 258.995 302.566 259.01C301.98 259.016 300.682 260.928 299.682 263.26ZM230 265.807C205.378 274.145 181.089 286.708 193.477 284.697C195.389 284.387 204.276 285.001 213.227 286.062C222.177 287.123 229.591 287.993 229.703 287.995C230.519 288.014 239 266.473 239 264.381C239 262.71 239.275 262.666 230 265.807ZM348.327 319.282C346.772 320.538 343.816 322.675 341.757 324.032C337.498 326.84 337.164 328.581 339.996 333.226C341.094 335.027 341.994 337.288 341.996 338.25C342.005 342.436 344.778 339.299 348.203 331.227C354.237 317.009 354.263 314.489 348.327 319.282ZM323.5 333.852C312.515 338.927 309.801 340.109 305.337 341.761C298.753 344.197 298.316 347.529 303.716 354.111C305.797 356.647 308.85 360.574 310.5 362.838C312.15 365.101 314.06 366.963 314.745 366.976C316.366 367.007 338.015 347.087 337.953 345.621C337.927 345.004 336.422 341.8 334.608 338.5C330.887 331.73 329.421 331.117 323.5 333.852ZM173.917 339.402C173.688 339.624 164.95 340.354 154.5 341.024C144.05 341.695 135.133 342.578 134.685 342.987C133.982 343.628 139.741 352.874 147.266 363.186C149.549 366.315 161.388 375.579 166.602 378.318C168.196 379.155 171.944 381.675 174.931 383.92C177.917 386.164 180.73 388 181.181 388C181.631 388 182 376.975 182 363.5V339H178.167C176.058 339 174.146 339.181 173.917 339.402ZM220.495 348.008C219.544 349.547 217.027 359.043 217.012 361.15C217 362.772 235.858 374 238.594 374C239.283 374 241.119 372.955 242.673 371.679C245.474 369.379 248.061 368.481 265.5 363.754C271.512 362.125 274.601 360.795 274.805 359.75C275.151 357.982 272.724 357.343 243.516 351.511C233.625 349.536 224.561 347.677 223.375 347.379C222.189 347.082 220.893 347.364 220.495 348.008ZM282.34 366.364C277.853 368.697 273.578 371.079 272.84 371.659C272.103 372.238 267.034 375.07 261.577 377.953C245.878 386.244 244.411 387.358 242.458 392.47C241.497 394.986 240.973 397.306 241.292 397.626C242.558 398.891 258.484 394.715 268.21 390.568C296.598 378.464 304 374.747 304 372.597C304 370.622 294.557 361.996 292.466 362.062C291.385 362.096 286.828 364.032 282.34 366.364ZM194 367.057C194 368.739 194.504 373.169 195.121 376.902C196.051 382.535 195.974 384.602 194.668 389.058C193.802 392.011 193.221 394.555 193.378 394.711C193.698 395.032 222.871 401 224.118 401C224.964 401 232.46 386.069 231.851 385.597C229.397 383.695 219.8 377.863 217.5 376.875C215.85 376.166 212.475 374.217 210 372.543C206.012 369.846 195.309 364 194.359 364C194.162 364 194 365.376 194 367.057Z"
          fill="#386FB3" />
</svg>